<?xml version="1.0" encoding="UTF-8" standalone="no"?>
<!DOCTYPE svg PUBLIC "-//W3C//DTD SVG 1.1//EN" "http://www.w3.org/Graphics/SVG/1.1/DTD/svg11.dtd">
<svg width="100%" height="100%" viewBox="0 0 200 200" version="1.1" xmlns="http://www.w3.org/2000/svg" xmlns:xlink="http://www.w3.org/1999/xlink" xml:space="preserve" xmlns:serif="http://www.serif.com/" style="fill-rule:evenodd;clip-rule:evenodd;stroke-linejoin:round;stroke-miterlimit:2;">
    <g id="LogoType">
    </g>
    <rect id="Logo---B" serif:id="Logo - B" x="0" y="0" width="200" height="200" style="fill:none;"/>
    <path id="B-Raster" d="M51.841,185.393l-2.247,-3.177c1.789,-10.119 3.375,-20.816 4.756,-32.09l4.595,-37.501l3.091,-26.572c0.847,-7.359 1.43,-12.346 1.75,-14.961c0.855,-6.972 1.936,-12.658 3.244,-17.058c1.308,-4.401 3.315,-8.453 6.02,-12.158c2.706,-3.704 6.139,-6.849 10.301,-9.435c4.161,-2.586 8.873,-4.4 14.136,-5.441c5.262,-1.042 11.005,-1.181 17.227,-0.419c11.255,1.379 18.74,4.383 22.457,9.013c3.717,4.629 5.185,10.13 4.404,16.503c-0.955,7.788 -4.95,14.513 -11.987,20.175c-7.037,5.661 -16.299,8.976 -27.787,9.946c5.952,0.729 11.846,2.156 17.682,4.281c5.836,2.125 10.604,5.46 14.303,10.004c3.7,4.544 5.146,10.111 4.338,16.702c-0.827,6.754 -3.916,12.913 -9.266,18.477c-5.35,5.564 -11.526,9.243 -18.529,11.039c-7.003,1.796 -14.102,2.253 -21.299,1.371c-1.298,-0.159 -4.775,-0.696 -10.43,-1.61l-3.403,-9.207c-0.767,6.264 -1.643,15.099 -2.629,26.505c-0.986,11.406 -1.488,19.429 -1.508,24.071c-5.119,0.091 -11.525,0.605 -19.219,1.542Zm37.549,-106.769c2.868,0.352 5.568,0.392 8.1,0.122c2.532,-0.27 5.433,-1.09 8.704,-2.458c3.27,-1.368 6.093,-3.109 8.466,-5.224c2.373,-2.114 4.391,-4.796 6.053,-8.048c1.661,-3.252 2.692,-6.512 3.093,-9.78c0.587,-4.793 -0.237,-9.164 -2.471,-13.114c-2.235,-3.951 -6.031,-6.254 -11.387,-6.91c-2.868,-0.352 -5.552,-0.072 -8.053,0.838c-2.5,0.909 -4.978,2.638 -7.431,5.184c-2.454,2.547 -4.523,5.983 -6.207,10.31c-1.683,4.327 -3.143,10.188 -4.378,17.583c-1.236,7.395 -2.488,16.046 -3.757,25.952l-4.234,34.559l2.646,-0.754c2.136,3.192 4.346,5.66 6.631,7.405c2.285,1.745 5.132,2.826 8.541,3.244c6.06,0.743 11.211,-1.183 15.454,-5.777c4.242,-4.594 6.824,-10.649 7.745,-18.166c0.988,-8.061 -0.277,-14.324 -3.794,-18.791c-3.517,-4.467 -8.765,-7.128 -15.745,-7.983c-3.301,-0.404 -6.81,-0.226 -10.528,0.535l-1.544,-1.516l4.096,-7.211Z" style="fill-rule:nonzero;"/>
</svg>
