<?xml version="1.0" standalone="no"?>
<!DOCTYPE svg PUBLIC "-//W3C//DTD SVG 20010904//EN"
 "http://www.w3.org/TR/2001/REC-SVG-20010904/DTD/svg10.dtd">
<svg version="1.0" xmlns="http://www.w3.org/2000/svg"
 width="640.000000pt" height="640.000000pt" viewBox="0 0 640.000000 640.000000"
 preserveAspectRatio="xMidYMid meet">
<metadata>
Created by potrace 1.14, written by Peter Selinger 2001-2017
</metadata>
<g transform="translate(0.000000,640.000000) scale(0.100000,-0.100000)"
fill="#000000" stroke="none">
<path d="M0 3200 l0 -3200 3200 0 3200 0 0 3200 0 3200 -3200 0 -3200 0 0
-3200z m3870 1800 c265 -46 421 -111 530 -220 113 -112 170 -254 170 -424 0
-220 -78 -409 -242 -582 -201 -212 -462 -337 -813 -389 -60 -9 -111 -17 -112
-19 -2 -1 32 -8 75 -14 273 -42 543 -143 701 -263 148 -111 242 -245 277 -395
22 -92 14 -269 -16 -374 -71 -247 -268 -484 -525 -633 -198 -115 -492 -177
-769 -163 -157 8 -447 51 -458 69 -4 6 -26 65 -50 129 -23 65 -45 115 -49 110
-17 -19 -112 -1122 -122 -1407 l-2 -70 -130 -7 c-71 -4 -195 -14 -275 -23 -80
-8 -150 -15 -157 -15 -7 0 -26 21 -44 47 l-32 46 42 261 c67 424 155 1110 306
2410 112 967 139 1108 252 1331 56 110 110 184 202 275 195 194 433 303 751
344 86 11 369 -3 490 -24z"/>
<path d="M3487 4820 c-207 -25 -395 -200 -505 -470 -100 -246 -164 -616 -312
-1824 -34 -274 -59 -500 -57 -502 2 -2 19 1 37 8 32 11 35 10 59 -23 56 -77
196 -205 252 -231 64 -30 186 -58 252 -58 235 0 450 174 556 450 51 132 66
226 65 415 0 157 -2 176 -26 243 -35 96 -76 159 -154 231 -142 133 -375 198
-611 172 -105 -12 -106 -12 -129 11 l-23 23 59 100 58 100 108 1 c153 3 206
10 309 46 177 60 285 127 392 241 139 149 223 358 223 555 0 258 -128 446
-338 496 -77 19 -146 24 -215 16z"/>
</g>
</svg>
