<svg viewBox="0 0 800 200" xmlns="http://www.w3.org/2000/svg" xml:space="preserve" style="fill-rule:evenodd;clip-rule:evenodd;stroke-linejoin:round;stroke-miterlimit:2"><path style="fill:none" d="M630 639.865h953.025v348.676H630z" transform="matrix(.83935 0 0 .5733 -528.791 -366.83)"/><path d="M.048.001c-.035 0-.053-.027-.053-.08 0-.042.039-.119.116-.23C.19-.423.251-.48.292-.48c.008 0 .016.002.023.007a.024.024 0 0 1 .011.02l-.073.078a3.993 3.993 0 0 0-.136.161c-.049.067-.073.115-.073.146a.05.05 0 0 0 .008.026c.005.009.011.014.02.014a.087.087 0 0 0 .049-.018.348.348 0 0 0 .114-.151.156.156 0 0 1-.007-.052c0-.05.017-.072.051-.067a.017.017 0 0 1 .014.01.066.066 0 0 1 .003.021.173.173 0 0 1-.007.05 2.288 2.288 0 0 0-.012.042.129.129 0 0 0 .019.046c.009.016.021.024.036.024.015 0 .032-.011.051-.032.004-.005.008-.007.012-.007.003 0 .005.002.006.007 0 .004-.003.01-.008.017-.021.025-.042.037-.065.037-.033 0-.059-.024-.079-.072a.375.375 0 0 1-.123.149.14.14 0 0 1-.078.025z" style="fill:#262626;fill-rule:nonzero" transform="matrix(212.09325 0 0 224.99976 12.357 133.696)"/><path d="M.204.005C.175.005.156-.003.145-.018a.1.1 0 0 1-.016-.06.26.26 0 0 1 .026-.1.821.821 0 0 1 .021-.042l.023-.034-.007.001H.186c-.016 0-.029-.011-.04-.034l-.074.096C.033-.14.009-.114 0-.114c-.003 0-.005-.001-.005-.004A.03.03 0 0 1 0-.131a.677.677 0 0 0 .135-.187C.15-.376.17-.405.193-.405c.015 0 .023.007.023.021 0 .013-.008.029-.025.05l-.024.032c0 .014.01.021.031.021a.078.078 0 0 0 .04-.013L.264-.31.27-.311c.008 0 .015.003.021.01.006.007.008.013.006.018l-.069.087c-.043.055-.064.099-.064.132 0 .03.015.045.044.045.02 0 .042-.006.065-.018a.446.446 0 0 0 .121-.096l.024-.028.005-.005.005-.003c.005 0 .007.002.007.007a.04.04 0 0 1-.002.007l-.007.011-.032.036a.409.409 0 0 1-.125.096.161.161 0 0 1-.065.017z" style="fill:#262626;fill-rule:nonzero" transform="matrix(212.09325 0 0 224.99976 89.772 133.696)"/><path d="M.067.005a.085.085 0 0 1-.048-.017.058.058 0 0 1-.027-.04c-.007-.051.026-.112.097-.183C.16-.306.223-.341.28-.341c.015 0 .027.004.036.011a.05.05 0 0 1 .011.019c.002.008.004.012.005.012l.007-.002.007-.001c.008 0 .015.003.021.009a.032.032 0 0 1 .01.016c.001.001-.021.034-.064.099C.27-.115.25-.072.254-.049c.003.015.011.023.022.023.035 0 .098-.057.19-.172.002-.003.004-.004.006-.004.003 0 .005.002.005.007s-.003.012-.009.02c-.085.114-.15.171-.195.171a.047.047 0 0 1-.017-.003C.227-.018.212-.04.212-.073c0-.011.001-.023.004-.034l-.062.06a.222.222 0 0 1-.05.04.087.087 0 0 1-.037.012zM.058-.017c.039 0 .091-.042.158-.127L.322-.29C.317-.299.308-.304.296-.304c-.041 0-.096.033-.165.098-.072.067-.104.122-.097.165.003.016.011.024.024.024z" style="fill:#262626;fill-rule:nonzero" transform="matrix(212.09325 0 0 224.99976 173.336 133.696)"/><path d="M.208-.346a.04.04 0 0 1-.029-.011C.17-.364.166-.372.166-.381.166-.4.179-.41.204-.41c.009 0 .019.003.028.01.009.007.014.015.014.024 0 .008-.004.015-.013.021a.045.045 0 0 1-.025.009zm-.392.551A.088.088 0 0 1-.239.186C-.256.173-.265.159-.265.146c0-.013.003-.019.009-.019l.02.025c.013.017.029.026.046.026.053 0 .114-.06.182-.181C.013-.04.03-.074.045-.105a.772.772 0 0 0 .033-.081.4.4 0 0 1-.058.055c-.011.009-.018.013-.023.013-.002 0-.003-.001-.003-.003 0-.006.004-.013.013-.021a.264.264 0 0 0 .045-.053.684.684 0 0 1 .033-.045l.033-.035a.057.057 0 0 1 .04-.019c.018 0 .027.007.027.022a.593.593 0 0 1-.035.066L.106-.13a1.852 1.852 0 0 1-.119.205c-.061.087-.118.13-.171.13z" style="fill:#262626;fill-rule:nonzero" transform="matrix(212.09325 0 0 224.99976 260.719 133.696)"/><path d="M.051.013a.09.09 0 0 1-.058-.021.065.065 0 0 1-.026-.054c0-.047.029-.101.087-.162.059-.061.112-.092.159-.092a.06.06 0 0 1 .038.012.043.043 0 0 1 .014.031c0 .037-.03.074-.089.11a.273.273 0 0 1-.133.048.059.059 0 0 1-.014-.002.116.116 0 0 0-.015.057c0 .035.016.052.049.052S.139-.03.192-.075a.639.639 0 0 0 .104-.104c.006-.008.011-.012.016-.012.004 0 .006.002.006.006s-.003.01-.008.017a.662.662 0 0 1-.129.125C.13-.006.086.013.051.013zm.006-.15a.21.21 0 0 0 .099-.038.374.374 0 0 0 .072-.067.06.06 0 0 0 .012-.032c0-.009-.007-.013-.021-.013-.02 0-.048.015-.084.045a.75.75 0 0 0-.05.048.302.302 0 0 0-.041.055l.013.002z" style="fill:#262626;fill-rule:nonzero" transform="matrix(212.09325 0 0 224.99976 303.35 133.696)"/><path d="M.115.002c-.031 0-.054-.01-.069-.031a.247.247 0 0 1-.037-.086c-.012.012-.02.018-.025.018-.003 0-.005-.003-.005-.008 0-.004.002-.008.005-.011L.01-.147a.833.833 0 0 1 .086-.087l.126-.118A.552.552 0 0 1 .264-.39c.01-.009.017-.013.022-.013.021 0 .032.008.032.024 0 .008-.004.017-.013.028l-.014.018-.006.008a.392.392 0 0 0-.033.111l-.019.097a.807.807 0 0 1-.013.055.165.165 0 0 0 .083-.026.38.38 0 0 0 .088-.082l.006-.006C.4-.179.402-.18.405-.18c.004 0 .006.002.006.005a.02.02 0 0 1-.003.01l-.006.009a.482.482 0 0 1-.058.06.222.222 0 0 1-.057.037.312.312 0 0 1-.071.023l-.032.021a.097.097 0 0 1-.031.013.158.158 0 0 1-.038.004zm.012-.051A.066.066 0 0 0 .165-.06C.172-.064.18-.075.187-.094a.654.654 0 0 0 .02-.068c.005-.023.01-.046.013-.069l.008-.064.004-.034a.765.765 0 0 0-.058.049l-.069.067a.397.397 0 0 0-.044.051.078.078 0 0 0-.011.025.074.074 0 0 0 .02.064.075.075 0 0 0 .057.024z" style="fill:#262626;fill-rule:nonzero" transform="matrix(212.09325 0 0 224.99976 357.857 133.696)"/><path d="M-.027.005c-.019 0-.029-.006-.029-.017a.08.08 0 0 1 .012-.032L.039-.19a2.16 2.16 0 0 1 .064-.107c.079-.127.135-.196.168-.207l.003-.001h.002c.009 0 .014.007.017.021a.771.771 0 0 1-.104.152c-.035.045-.063.081-.082.11a.35.35 0 0 0-.037.064l.071-.051.074-.052a1.18 1.18 0 0 1 .065-.04.135.135 0 0 1 .045-.017L.33-.319h.004c.019 0 .028.009.028.026 0 .005-.006.015-.018.031l-.055.074c-.044.059-.066.103-.066.132 0 .015.006.023.017.023a.096.096 0 0 0 .042-.016.36.36 0 0 0 .047-.037C.345-.101.36-.115.373-.13l.029-.033c.006-.006.011-.009.014-.009.003 0 .004.001.004.004a.037.037 0 0 1-.008.019.749.749 0 0 1-.138.128C.257-.01.245-.004.237-.004c-.039 0-.059-.023-.059-.069 0-.026.012-.06.036-.102l.029-.048.03-.048a.733.733 0 0 0-.232.189l-.027.038a.478.478 0 0 1-.025.035C-.018 0-.024.005-.027.005z" style="fill:#262626;fill-rule:nonzero" transform="matrix(212.09325 0 0 224.99976 433.999 133.696)"/><path d="M.026.002C.019.002.01-.002-.001-.009-.013-.016-.019-.023-.019-.03c0-.016.02-.067.059-.154.042-.093.073-.139.093-.139.008 0 .015.004.021.011.005.007.008.013.008.018 0 .002-.018.035-.055.1a.392.392 0 0 0-.053.118l.051-.061.05-.061C.22-.273.262-.31.282-.31c.007 0 .015.003.022.009.007.007.01.013.01.019 0 .004-.008.017-.025.038a.796.796 0 0 0-.049.076.143.143 0 0 0-.021.073c0 .042.014.063.042.063a.1.1 0 0 0 .063-.019.219.219 0 0 0 .052-.069.457.457 0 0 0 .031-.07.19.19 0 0 0 .007-.094.118.118 0 0 0-.01-.025.008.008 0 0 1-.002-.005c0-.004.002-.006.006-.006a.04.04 0 0 1 .014.003c.005.003.009.009.014.019a.108.108 0 0 1 .009.03.287.287 0 0 1 .003.036c0 .048-.02.096-.061.145-.043.052-.089.078-.138.078a.057.057 0 0 1-.042-.017.098.098 0 0 1-.027-.041.136.136 0 0 1-.009-.048c0-.023.005-.051.016-.086a1.206 1.206 0 0 0-.08.093l-.049.064a.358.358 0 0 0-.032.046z" style="fill:#262626;fill-rule:nonzero" transform="matrix(212.09325 0 0 224.99976 513.745 133.696)"/><path d="M.067.005a.085.085 0 0 1-.048-.017.058.058 0 0 1-.027-.04c-.007-.051.026-.112.097-.183C.16-.306.223-.341.28-.341c.015 0 .027.004.036.011a.05.05 0 0 1 .011.019c.002.008.004.012.005.012l.007-.002.007-.001c.008 0 .015.003.021.009a.032.032 0 0 1 .01.016c.001.001-.021.034-.064.099C.27-.115.25-.072.254-.049c.003.015.011.023.022.023.035 0 .098-.057.19-.172.002-.003.004-.004.006-.004.003 0 .005.002.005.007s-.003.012-.009.02c-.085.114-.15.171-.195.171a.047.047 0 0 1-.017-.003C.227-.018.212-.04.212-.073c0-.011.001-.023.004-.034l-.062.06a.222.222 0 0 1-.05.04.087.087 0 0 1-.037.012zM.058-.017c.039 0 .091-.042.158-.127L.322-.29C.317-.299.308-.304.296-.304c-.041 0-.096.033-.165.098-.072.067-.104.122-.097.165.003.016.011.024.024.024z" style="fill:#262626;fill-rule:nonzero" transform="matrix(212.09325 0 0 224.99976 608.974 133.696)"/><path d="M.204.005C.175.005.156-.003.145-.018a.1.1 0 0 1-.016-.06.26.26 0 0 1 .026-.1.821.821 0 0 1 .021-.042l.023-.034-.007.001H.186c-.016 0-.029-.011-.04-.034l-.074.096C.033-.14.009-.114 0-.114c-.003 0-.005-.001-.005-.004A.03.03 0 0 1 0-.131a.677.677 0 0 0 .135-.187C.15-.376.17-.405.193-.405c.015 0 .023.007.023.021 0 .013-.008.029-.025.05l-.024.032c0 .014.01.021.031.021a.078.078 0 0 0 .04-.013L.264-.31.27-.311c.008 0 .015.003.021.01.006.007.008.013.006.018l-.069.087c-.043.055-.064.099-.064.132 0 .03.015.045.044.045.02 0 .042-.006.065-.018a.446.446 0 0 0 .121-.096l.024-.028.005-.005.005-.003c.005 0 .007.002.007.007a.04.04 0 0 1-.002.007l-.007.011-.032.036a.409.409 0 0 1-.125.096.161.161 0 0 1-.065.017z" style="fill:#262626;fill-rule:nonzero" transform="matrix(212.09325 0 0 224.99976 696.358 133.696)"/></svg>