<?xml version="1.0" encoding="utf-8" standalone="no"?>
<!DOCTYPE svg PUBLIC "-//W3C//DTD SVG 1.1//EN"
  "http://www.w3.org/Graphics/SVG/1.1/DTD/svg11.dtd">
<svg xmlns:xlink="http://www.w3.org/1999/xlink" width="684pt" height="347.04pt" viewBox="0 0 684 347.04" xmlns="http://www.w3.org/2000/svg" version="1.1">
 <metadata>
  <rdf:RDF xmlns:dc="http://purl.org/dc/elements/1.1/" xmlns:cc="http://creativecommons.org/ns#" xmlns:rdf="http://www.w3.org/1999/02/22-rdf-syntax-ns#">
   <cc:Work>
    <dc:type rdf:resource="http://purl.org/dc/dcmitype/StillImage"/>
    <dc:date>2025-09-02T09:51:22.019764</dc:date>
    <dc:format>image/svg+xml</dc:format>
    <dc:creator>
     <cc:Agent>
      <dc:title>Matplotlib v3.6.3, https://matplotlib.org/</dc:title>
     </cc:Agent>
    </dc:creator>
   </cc:Work>
  </rdf:RDF>
 </metadata>
 <defs>
  <style type="text/css">*{stroke-linejoin: round; stroke-linecap: butt}</style>
 </defs>
 <g id="figure_1">
  <g id="patch_1">
   <path d="M 0 347.04 
L 684 347.04 
L 684 -0 
L 0 -0 
L 0 347.04 
z
" style="fill: none"/>
  </g>
  <g id="axes_1">
   <g id="patch_2">
    <path d="M 7.2 339.84 
L 676.8 339.84 
L 676.8 7.2 
L 7.2 7.2 
L 7.2 339.84 
z
" style="fill: none"/>
   </g>
   <g id="matplotlib.axis_1"/>
   <g id="matplotlib.axis_2"/>
   <g id="line2d_1">
    <path d="M 43.071429 307.649032 
L 94.972216 307.19342 
L 135.89399 306.623507 
L 169.82912 305.936936 
L 198.77379 305.135139 
L 223.726091 304.230094 
L 245.684116 303.222868 
L 265.645958 302.093239 
L 283.611615 300.863837 
L 300.57918 299.480477 
L 315.55056 298.048075 
L 329.523849 296.50237 
L 342.499046 294.859434 
L 355.474243 292.988006 
L 367.451347 291.03032 
L 378.43036 289.016874 
L 389.409373 286.768896 
L 399.390293 284.49883 
L 409.371214 281.989601 
L 418.354042 279.506037 
L 427.336871 276.788178 
L 435.321607 274.157787 
L 443.306344 271.307939 
L 451.29108 268.220322 
L 459.275817 264.8751 
L 466.262461 261.719861 
L 473.249106 258.335446 
L 480.23575 254.705209 
L 487.222394 250.811296 
L 494.209039 246.634553 
L 500.197591 242.813848 
L 506.186144 238.756477 
L 512.174696 234.44778 
L 518.163248 229.87219 
L 524.151801 225.013175 
L 530.140353 219.853178 
L 536.128905 214.373556 
L 542.117458 208.554511 
L 548.10601 202.375016 
L 553.09647 196.934028 
L 558.086931 191.213597 
L 563.077391 185.199371 
L 568.067851 178.876261 
L 573.058311 172.228404 
L 578.048772 165.23912 
L 583.039232 157.890875 
L 588.029692 150.165232 
L 593.020153 142.042809 
L 598.010613 133.503228 
L 603.001073 124.525063 
L 607.991534 115.085791 
L 612.981994 105.161728 
L 617.972454 94.727977 
L 622.962914 83.75836 
L 627.953375 72.225357 
L 632.943835 60.100031 
L 637.934295 47.351963 
L 640.928571 39.390968 
L 640.928571 39.390968 
" clip-path="url(#pa2840c31df)" style="fill: none; stroke: #e69f00; stroke-width: 5; stroke-linecap: square"/>
   </g>
  </g>
 </g>
 <defs>
  <clipPath id="pa2840c31df">
   <rect x="7.2" y="7.2" width="669.6" height="332.64"/>
  </clipPath>
 </defs>
</svg>
