<?xml version="1.0" encoding="utf-8"?>
<!-- Generator: KrentSVG -->
<!DOCTYPE svg PUBLIC "-//W3C//DTD SVG 1.1//EN" "http://www.w3.org/Graphics/SVG/1.1/DTD/svg11.dtd">
<svg version="1.1" xmlns="http://www.w3.org/2000/svg" xmlns:xlink="http://www.w3.org/1999/xlink" x="0px" y="0px" width="396px"
	 height="468px" viewBox="0 0 396 468" enable-background="new 0 0 396 468" xml:space="preserve">
<g id="Background">
	<rect id="LowerBackground" y="312" fill="#C1B866" width="396" height="156"/>
	<rect id="UpperBackground" fill="#DBD6BD" width="396" height="312"/>
</g>
<g id="Specimen">
	<g id="Numerals">
		<path fill="#FFFFFF" d="M118.739,419.104c3.105,0,5.473,1.304,7.102,3.911s2.443,6.12,2.443,10.538
			c0,4.43-0.814,7.948-2.443,10.556s-3.996,3.911-7.102,3.911c-3.094,0-5.458-1.304-7.093-3.911s-2.452-6.126-2.452-10.556
			c0-4.418,0.817-7.931,2.452-10.538S115.645,419.104,118.739,419.104z M113.411,439.385l9.422-14.78
			c-0.596-1.089-1.243-1.823-1.938-2.204c-0.696-0.381-1.418-0.571-2.167-0.571c-1.954,0-3.439,1.087-4.457,3.26
			s-1.526,4.93-1.526,8.269c0,0.762,0.023,1.582,0.07,2.461C112.861,436.696,113.06,437.885,113.411,439.385z M124.013,427.858
			l-9.355,14.871c0.503,0.855,1.083,1.497,1.738,1.925s1.387,0.642,2.194,0.642c2.223,0,3.803-1.245,4.739-3.735
			s1.404-5.253,1.404-8.288C124.733,431.397,124.493,429.593,124.013,427.858z"/>
		<path fill="#FFFFFF" d="M144.142,444.47v-21.042c-0.984,0.782-1.939,1.447-2.865,1.995s-2.197,1.108-3.814,1.68v-2.953
			c2.566-1.09,4.793-2.502,6.68-4.236h3.27v24.557h6.557v2.725h-16.506v-2.725H144.142z"/>
		<path fill="#FFFFFF" d="M179.494,447.194h-16.506v-3.006c0-0.773,0.158-1.603,0.474-2.487s0.92-1.878,1.811-2.979
			c0.89-1.102,1.833-2.162,2.827-3.182l1.86-1.898c0.374-0.387,1.193-1.283,2.456-2.689s2.096-2.484,2.5-3.234
			s0.605-1.488,0.605-2.215c0-1.172-0.468-2.077-1.404-2.716s-1.989-0.958-3.159-0.958c-0.667,0-1.413,0.076-2.238,0.229
			s-1.547,0.331-2.167,0.536s-1.626,0.624-3.019,1.257v-2.9c1.477-0.703,2.956-1.187,4.438-1.45s2.704-0.396,3.665-0.396
			c1.418,0,2.722,0.231,3.911,0.694s2.074,1.181,2.654,2.153s0.87,2.01,0.87,3.111c0,1.23-0.374,2.49-1.122,3.779
			c-0.748,1.289-2.152,2.947-4.213,4.975l-2.002,1.986l-1.686,1.652c-1.065,1.078-1.926,2.121-2.581,3.129
			c-0.655,1.008-1.018,2.209-1.088,3.604h13.113V447.194z"/>
		<path fill="#FFFFFF" d="M189.129,446.702v-3.445c2.684,1.359,5.01,2.039,6.979,2.039c1.805,0,3.296-0.548,4.474-1.644
			s1.766-2.505,1.766-4.228c0-1.734-0.646-3.146-1.941-4.236s-3.496-1.635-6.601-1.635h-1.811v-2.725h2.514
			c2.285,0,3.938-0.513,4.957-1.538c1.02-1.025,1.529-2.165,1.529-3.419c0-1.137-0.416-2.095-1.248-2.874s-2.109-1.169-3.832-1.169
			c-1.934,0-4.014,0.545-6.24,1.635v-3.111c2.227-0.832,4.266-1.248,6.117-1.248c3.316,0,5.605,0.653,6.865,1.96
			s1.889,2.798,1.889,4.474c0,1.242-0.334,2.408-1.002,3.498s-1.898,2.062-3.691,2.918c1.582,0.469,2.777,1.043,3.586,1.723
			s1.422,1.482,1.838,2.408s0.623,1.963,0.623,3.111c0,2.555-0.945,4.664-2.838,6.328s-4.34,2.496-7.339,2.496
			c-0.867,0-1.813-0.064-2.839-0.193S190.606,447.323,189.129,446.702z"/>
		<path fill="#FFFFFF" d="M225.237,447.194v-7.629h-11.602v-2.725l11.602-16.928h3.27v16.928h5.045v2.725h-5.045v7.629H225.237z
			 M225.237,436.841v-11.975l-8.121,11.975H225.237z"/>
		<path fill="#FFFFFF" d="M242.309,433.026v-13.113h15.275v3.146h-12.006v6.68h0.562c3.926,0,6.949,0.82,9.07,2.461
			s3.182,3.85,3.182,6.627c0,1.758-0.428,3.334-1.283,4.729s-2.062,2.487-3.621,3.278s-3.217,1.187-4.975,1.187
			s-4.008-0.428-6.75-1.282v-3.566c0.996,0.538,2.109,0.98,3.34,1.325s2.367,0.518,3.41,0.518s2.062-0.251,3.059-0.755
			c0.996-0.503,1.77-1.237,2.32-2.203c0.551-0.965,0.826-1.951,0.826-2.957c0-1.697-0.754-3.133-2.26-4.309
			c-1.506-1.177-4.18-1.765-8.023-1.765H242.309z"/>
		<path fill="#FFFFFF" d="M270.348,434.397c0.844-1.254,1.89-2.276,3.138-3.067s2.622-1.187,4.122-1.187
			c1.418,0,2.763,0.346,4.034,1.037s2.241,1.655,2.909,2.892s1.002,2.675,1.002,4.315c0,2.59-0.829,4.843-2.487,6.759
			s-3.841,2.874-6.548,2.874c-3.188,0-5.569-1.333-7.146-3.999s-2.364-6.056-2.364-10.169c0-4.547,1.002-8.142,3.006-10.784
			s4.717-3.964,8.139-3.964c1.84,0,3.627,0.27,5.361,0.809v3.305c-1.945-0.926-3.779-1.389-5.502-1.389
			c-2.438,0-4.324,1.119-5.66,3.357s-2.004,5.074-2.004,8.508V434.397z M276.764,445.296c0.879,0,1.764-0.261,2.654-0.782
			s1.591-1.324,2.101-2.408s0.765-2.265,0.765-3.542c0-1.664-0.431-3.029-1.292-4.096s-2.089-1.6-3.683-1.6
			c-1.652,0-3.009,0.618-4.069,1.854s-1.591,2.739-1.591,4.509c0,1.781,0.519,3.237,1.556,4.368S275.428,445.296,276.764,445.296z"
			/>
		<path fill="#FFFFFF" d="M297.033,447.194v-2.443c0-1.91,0.217-3.516,0.65-4.816s1.195-2.748,2.285-4.342s1.963-2.824,2.619-3.691
			l2.84-3.768l1.021-1.316c0.776-1.042,1.446-2.247,2.01-3.617h-14.15v-3.287h17.314v2.18c0,0.867-0.172,1.67-0.518,2.408
			s-1.393,2.314-3.139,4.729c-0.42,0.575-0.834,1.151-1.242,1.728l-1.84,2.558c-1.17,1.653-2.036,2.972-2.598,3.956
			s-0.986,2.01-1.272,3.077s-0.431,2.468-0.431,4.202v2.444H297.033z"/>
		<path fill="#FFFFFF" d="M325.71,432.481l-0.599-0.439c-0.832-0.586-1.647-1.45-2.445-2.593c-0.797-1.143-1.196-2.399-1.196-3.771
			c0-1.816,0.715-3.366,2.145-4.649s3.246-1.925,5.449-1.925c1.348,0,2.561,0.243,3.639,0.729s1.91,1.204,2.496,2.153
			s0.879,1.986,0.879,3.111c0,0.773-0.136,1.521-0.405,2.241c-0.271,0.721-0.673,1.436-1.207,2.145
			c-0.535,0.709-1.596,1.708-3.182,2.997l1.479,1.178c1.727,1.406,2.89,2.619,3.488,3.639s0.898,2.162,0.898,3.428
			c0,1.969-0.715,3.677-2.145,5.124s-3.574,2.171-6.434,2.171c-2.871,0-5.021-0.677-6.451-2.03s-2.145-3.032-2.145-5.036
			C319.976,437.966,321.887,435.142,325.71,432.481z M328.176,434.222c-3.1,2.379-4.649,4.605-4.649,6.68
			c0,1.23,0.509,2.268,1.526,3.111s2.223,1.266,3.615,1.266c1.275,0,2.416-0.404,3.422-1.213s1.509-1.816,1.509-3.023
			c0-1.184-0.609-2.385-1.828-3.604s-2.067-2.016-2.546-2.391L328.176,434.222z M329.055,430.812
			c1.664-1.254,2.705-2.303,3.125-3.146c0.418-0.844,0.628-1.629,0.628-2.355c0-0.879-0.388-1.679-1.163-2.399
			c-0.774-0.721-1.773-1.081-2.994-1.081c-1.315,0-2.316,0.393-3.004,1.178s-1.03,1.6-1.03,2.443c0,0.82,0.286,1.594,0.86,2.32
			c0.572,0.727,1.49,1.541,2.754,2.443L329.055,430.812z"/>
		<path fill="#FFFFFF" d="M360.303,432.71c-0.844,1.254-1.89,2.276-3.138,3.067s-2.622,1.187-4.122,1.187
			c-1.418,0-2.763-0.343-4.034-1.028s-2.241-1.649-2.909-2.892s-1.002-2.684-1.002-4.324c0-2.578,0.829-4.825,2.487-6.741
			s3.841-2.874,6.548-2.874c3.188,0,5.569,1.333,7.146,3.999s2.364,6.056,2.364,10.169c0,4.547-1.002,8.142-3.006,10.784
			s-4.717,3.964-8.139,3.964c-1.84,0-3.627-0.275-5.361-0.826v-3.287c1.945,0.914,3.779,1.371,5.502,1.371
			c2.438,0,4.324-1.119,5.66-3.357s2.004-5.074,2.004-8.508V432.71z M353.887,421.829c-0.879,0-1.764,0.261-2.654,0.782
			s-1.591,1.321-2.101,2.399s-0.765,2.262-0.765,3.551c0,1.652,0.431,3.012,1.292,4.078s2.089,1.6,3.683,1.6
			c1.652,0,3.009-0.618,4.069-1.854s1.591-2.733,1.591-4.491c0-1.781-0.519-3.237-1.556-4.368S355.223,421.829,353.887,421.829z"/>
	</g>
	<g id="LowercaseAlphabet">
		<path fill="#231F20" d="M44.936,353.102c-0.997,1.635-2.195,2.865-3.596,3.694s-2.687,1.243-3.859,1.243
			c-1.641,0-3.115-0.709-4.422-2.127s-1.96-3.568-1.96-6.451c0-2.273,0.434-4.304,1.302-6.091s2.03-3.199,3.484-4.236
			s3.256-1.556,5.403-1.556c0.622,0,1.558,0.064,2.81,0.193c0.187,0.023,0.468,0.053,0.842,0.088h3.28v13.865
			c0,2.369,0.252,4.292,0.756,5.77h-3.41C45.301,356.421,45.091,354.957,44.936,353.102z M44.949,349.19v-8.431
			c-1.162-0.305-2.242-0.457-3.24-0.457c-2.02,0-3.701,0.78-5.045,2.341s-2.016,3.685-2.016,6.37c0,1.949,0.367,3.418,1.101,4.41
			c0.733,0.99,1.57,1.486,2.509,1.486c1.021,0,2.148-0.516,3.381-1.549C42.872,352.329,43.975,350.938,44.949,349.19z"/>
		<path fill="#231F20" d="M61.264,342.273c1.008-1.641,2.209-2.878,3.604-3.711c1.395-0.832,2.678-1.248,3.85-1.248
			c1.641,0,3.117,0.709,4.43,2.127s1.969,3.568,1.969,6.451c0,2.273-0.437,4.304-1.31,6.091s-2.036,3.199-3.489,4.236
			s-3.252,1.556-5.396,1.556c-0.609,0-1.547-0.064-2.812-0.193c-0.188-0.023-0.469-0.053-0.844-0.088h-3.27v-28.371h3.27V342.273z
			 M61.264,346.163v8.431c1.184,0.305,2.273,0.457,3.27,0.457c1.98,0,3.647-0.777,5.001-2.332s2.03-3.681,2.03-6.379
			c0-1.96-0.369-3.433-1.107-4.418s-1.576-1.479-2.514-1.479c-1.02,0-2.142,0.517-3.366,1.549
			C63.353,343.025,62.249,344.415,61.264,346.163z"/>
		<path fill="#231F20" d="M100.976,356.932c-2.191,0.738-4.277,1.107-6.258,1.107c-1.969,0-3.718-0.454-5.247-1.362
			s-2.722-2.139-3.577-3.691s-1.283-3.319-1.283-5.3c0-2.977,0.97-5.449,2.909-7.418s4.28-2.953,7.022-2.953
			c2.027,0,4.172,0.381,6.434,1.143v3.146c-2.285-1.043-4.33-1.564-6.135-1.564c-1.195,0-2.32,0.296-3.375,0.888
			s-1.869,1.515-2.443,2.769s-0.861,2.543-0.861,3.867c0,1.77,0.554,3.457,1.661,5.062s2.845,2.408,5.212,2.408
			c0.715,0,1.418-0.05,2.109-0.149s1.969-0.466,3.832-1.099V356.932z"/>
		<path fill="#231F20" d="M123.795,353.08c-0.998,1.641-2.197,2.878-3.6,3.711c-1.402,0.832-2.689,1.248-3.863,1.248
			c-1.643,0-3.119-0.709-4.427-2.127c-1.309-1.418-1.962-3.568-1.962-6.451c0-2.273,0.434-4.304,1.302-6.091s2.03-3.199,3.485-4.236
			s3.256-1.556,5.403-1.556c0.622,0,1.561,0.064,2.816,0.193c0.188,0.023,0.469,0.053,0.845,0.088v-8.736h3.27v28.371h-3.27V353.08z
			 M123.795,349.19v-8.431c-1.162-0.305-2.242-0.457-3.24-0.457c-2.02,0-3.701,0.78-5.045,2.341s-2.016,3.685-2.016,6.37
			c0,1.949,0.367,3.418,1.101,4.41c0.733,0.99,1.57,1.486,2.509,1.486c1.021,0,2.148-0.516,3.381-1.549
			C121.717,352.329,122.82,350.938,123.795,349.19z"/>
		<path fill="#231F20" d="M153.206,356.188c-2.613,1.234-5.086,1.852-7.418,1.852c-1.77,0-3.352-0.439-4.746-1.317
			s-2.511-2.134-3.349-3.767c-0.838-1.634-1.257-3.381-1.257-5.243c0-1.792,0.398-3.513,1.195-5.163
			c0.797-1.651,1.91-2.937,3.34-3.855s3.023-1.379,4.781-1.379c2.332,0,4.204,0.831,5.616,2.492
			c1.412,1.662,2.118,4.224,2.118,7.687v0.702h-13.535c0,1.363,0.284,2.608,0.853,3.736c0.568,1.127,1.315,1.973,2.241,2.537
			s1.98,0.846,3.164,0.846c2.109,0,4.441-0.705,6.996-2.115V356.188z M140.145,345.752h9.791v-0.473c0-1.602-0.393-2.875-1.178-3.82
			c-0.785-0.947-1.834-1.42-3.146-1.42c-1.324,0-2.47,0.482-3.437,1.445C141.208,342.449,140.532,343.871,140.145,345.752z"/>
		<path fill="#231F20" d="M167.657,357.494v-15.293h-4.359v-2.725h4.359v-0.912c0-2.586,0.293-4.499,0.879-5.739
			s1.491-2.258,2.716-3.054c1.225-0.795,2.845-1.193,4.86-1.193c1.523,0,3.07,0.157,4.641,0.472v3.097
			c-1.699-0.562-3.205-0.844-4.518-0.844c-1.043,0-1.963,0.193-2.76,0.58s-1.421,1.017-1.872,1.89s-0.677,2.353-0.677,4.438v1.266
			h7.787v2.725h-7.787v15.293H167.657z"/>
		<path fill="#231F20" d="M202.43,353.08c-0.998,1.641-2.197,2.878-3.6,3.711c-1.402,0.832-2.69,1.248-3.863,1.248
			c-1.643,0-3.119-0.709-4.427-2.127c-1.309-1.418-1.962-3.568-1.962-6.451c0-2.273,0.434-4.304,1.302-6.091s2.03-3.199,3.484-4.236
			s3.256-1.556,5.403-1.556c0.621,0,1.559,0.064,2.809,0.193c0.188,0.023,0.469,0.053,0.842,0.088h3.281v13.887
			c0,3.305-0.043,5.323-0.129,6.056c-0.084,0.732-0.225,1.474-0.418,2.224c-0.469,1.746-1.539,3.123-3.211,4.131
			c-1.67,1.008-3.691,1.512-6.061,1.512c-2.382,0-4.792-0.609-7.232-1.828v-3.305c0.927,0.633,2.068,1.192,3.423,1.679
			c1.355,0.486,2.667,0.729,3.934,0.729c0.997,0,1.942-0.158,2.833-0.475c0.893-0.316,1.613-0.773,2.166-1.371
			c0.551-0.598,0.926-1.293,1.125-2.084c0.201-0.791,0.301-1.844,0.301-3.156V353.08z M202.43,349.19v-8.431
			c-1.162-0.305-2.242-0.457-3.24-0.457c-2.02,0-3.701,0.78-5.045,2.341s-2.016,3.685-2.016,6.37c0,1.949,0.367,3.418,1.101,4.41
			c0.733,0.99,1.57,1.486,2.509,1.486c1.021,0,2.149-0.516,3.381-1.549C200.352,352.329,201.455,350.938,202.43,349.19z"/>
		<path fill="#231F20" d="M215.51,357.494v-28.371h3.27v13.025c0.938-1.512,2.068-2.695,3.393-3.551s2.648-1.283,3.973-1.283
			c1.113,0,2.13,0.284,3.05,0.853s1.562,1.257,1.925,2.065c0.293,0.621,0.492,1.28,0.598,1.978s0.158,2.136,0.158,4.315v10.969
			h-3.27v-11.373c0-1.887-0.091-3.132-0.272-3.735s-0.516-1.099-1.002-1.485s-1.017-0.58-1.591-0.58c-1.148,0-2.382,0.545-3.7,1.635
			s-2.405,2.455-3.261,4.096v11.443H215.51z"/>
		<path fill="#231F20" d="M247.224,357.494v-16.91h-5.449v-2.725h8.719v16.91h5.467v2.725H247.224z M246.696,330.767
			c0-0.735,0.251-1.284,0.753-1.646s0.975-0.543,1.418-0.543c0.455,0,0.934,0.182,1.436,0.543s0.753,0.91,0.753,1.646
			c0,0.724-0.251,1.267-0.753,1.628c-0.502,0.362-0.98,0.543-1.436,0.543c-0.443,0-0.916-0.181-1.418-0.543
			C246.947,332.033,246.696,331.49,246.696,330.767z"/>
		<path fill="#231F20" d="M268.231,365.178v-3.043c1.828,0.539,3.369,0.809,4.623,0.809c1.09,0,2.016-0.19,2.777-0.571
			s1.356-1.022,1.784-1.925s0.642-2.473,0.642-4.711v-15.152h-8.332v-2.725h11.602v17.251c0,3.325-0.393,5.636-1.178,6.931
			c-0.785,1.293-1.734,2.222-2.848,2.783c-1.113,0.562-2.637,0.844-4.57,0.844C271.337,365.668,269.837,365.504,268.231,365.178z
			 M277.53,330.767c0-0.735,0.249-1.284,0.747-1.646s0.976-0.543,1.433-0.543s0.935,0.182,1.433,0.543s0.747,0.91,0.747,1.646
			c0,0.724-0.249,1.267-0.747,1.628c-0.498,0.362-0.976,0.543-1.433,0.543s-0.935-0.181-1.433-0.543
			C277.779,332.033,277.53,331.49,277.53,330.767z"/>
		<path fill="#231F20" d="M295.023,357.494v-28.371h3.27v17.824l9.439-9.088h4.327l-9.348,8.998l9.626,10.637h-4.5l-9.545-10.547
			v10.547H295.023z"/>
		<path fill="#231F20" d="M325.629,357.494v-25.646h-5.871v-2.725h9.141v25.646h6.135v2.725H325.629z"/>
		<path fill="#231F20" d="M345.091,357.494v-19.635h2.865v4.5c0.902-1.91,1.743-3.229,2.522-3.955s1.567-1.09,2.364-1.09
			c0.949,0,1.714,0.372,2.294,1.116s0.87,1.802,0.87,3.173v1.055c0.387-1.195,0.853-2.165,1.397-2.909s1.11-1.336,1.696-1.775
			s1.26-0.659,2.021-0.659c0.844,0,1.564,0.357,2.162,1.072s0.896,2.139,0.896,4.271v14.836h-2.865v-13.412
			c0-1.102-0.035-1.854-0.105-2.259s-0.211-0.712-0.422-0.923s-0.439-0.316-0.686-0.316c-0.609,0-1.263,0.466-1.96,1.397
			s-1.409,2.476-2.136,4.632v10.881h-2.725V344.1c0-1.734-0.171-2.754-0.512-3.059s-0.646-0.457-0.917-0.457
			c-0.6,0-1.243,0.521-1.932,1.564c-0.688,1.043-1.343,2.379-1.966,4.008v11.338H345.091z"/>
		<path fill="#231F20" d="M32.029,400.694V381.06h3.27v4.289c0.938-1.512,2.068-2.695,3.393-3.551s2.648-1.283,3.973-1.283
			c1.16,0,2.215,0.308,3.164,0.923s1.614,1.421,1.995,2.417s0.571,2.953,0.571,5.871v10.969h-3.27v-11.373
			c0-1.887-0.091-3.132-0.272-3.735s-0.516-1.099-1.002-1.485s-1.017-0.58-1.591-0.58c-1.148,0-2.382,0.545-3.7,1.635
			s-2.405,2.455-3.261,4.096v11.443H32.029z"/>
		<path fill="#231F20" d="M66.318,401.239c-2.81,0-5.058-0.981-6.744-2.944s-2.529-4.438-2.529-7.427s0.843-5.461,2.529-7.418
			s3.934-2.936,6.744-2.936c2.798,0,5.04,0.979,6.726,2.936c1.686,1.957,2.529,4.43,2.529,7.418s-0.843,5.464-2.529,7.427
			C71.358,400.258,69.116,401.239,66.318,401.239z M66.318,398.515c1.743,0,3.13-0.68,4.159-2.039
			c1.03-1.359,1.545-3.229,1.545-5.607c0-2.367-0.515-4.23-1.545-5.59c-1.029-1.359-2.416-2.039-4.159-2.039
			c-1.755,0-3.147,0.68-4.177,2.039s-1.544,3.223-1.544,5.59c0,2.379,0.515,4.248,1.544,5.607S64.563,398.515,66.318,398.515z"/>
		<path fill="#231F20" d="M87.476,385.474c1.008-1.642,2.209-2.878,3.604-3.71s2.678-1.249,3.85-1.249
			c1.641,0,3.117,0.709,4.43,2.127s1.969,3.568,1.969,6.451c0,2.273-0.437,4.304-1.31,6.091s-2.036,3.199-3.489,4.236
			s-3.252,1.556-5.396,1.556c-0.609,0-1.547-0.064-2.812-0.193c-0.188-0.023-0.469-0.053-0.844-0.088v7.629h-3.27V381.06h3.27
			V385.474z M87.476,389.363v8.43c1.184,0.306,2.273,0.458,3.27,0.458c1.98,0,3.647-0.777,5.001-2.332
			c1.354-1.554,2.03-3.681,2.03-6.38c0-1.959-0.369-3.432-1.107-4.417s-1.576-1.479-2.514-1.479c-1.02,0-2.142,0.517-3.366,1.549
			S88.46,387.615,87.476,389.363z"/>
		<path fill="#231F20" d="M123.795,396.28c-0.998,1.642-2.197,2.878-3.6,3.71c-1.402,0.832-2.689,1.249-3.863,1.249
			c-1.643,0-3.119-0.709-4.427-2.127c-1.309-1.418-1.962-3.568-1.962-6.451c0-2.273,0.434-4.304,1.302-6.091s2.03-3.199,3.484-4.236
			s3.256-1.556,5.403-1.556c0.622,0,1.558,0.064,2.81,0.193c0.187,0.023,0.468,0.053,0.842,0.088h3.28v27.264h-3.27V396.28z
			 M123.795,392.391v-8.43c-1.162-0.305-2.242-0.458-3.24-0.458c-2.02,0-3.701,0.78-5.045,2.341s-2.016,3.684-2.016,6.371
			c0,1.947,0.367,3.417,1.101,4.408c0.733,0.992,1.57,1.487,2.509,1.487c1.021,0,2.148-0.517,3.381-1.549
			C121.717,395.529,122.82,394.139,123.795,392.391z"/>
		<path fill="#231F20" d="M138.545,400.694V381.06h3.27v4.289c1.02-1.617,2.188-2.827,3.507-3.63s2.786-1.204,4.403-1.204
			c1.184,0,2.367,0.182,3.551,0.545v7.084h-3.146v-4.482c-0.551-0.094-0.984-0.141-1.301-0.141c-1.219,0-2.414,0.48-3.586,1.441
			s-2.314,2.402-3.428,4.324v11.408H138.545z"/>
		<path fill="#231F20" d="M163.315,399.657v-3.463c1.312,0.855,2.701,1.456,4.166,1.802s2.707,0.519,3.727,0.519
			c1.652,0,2.842-0.267,3.568-0.8s1.09-1.198,1.09-1.995c0-0.527-0.17-0.979-0.51-1.354s-1.184-0.838-2.531-1.389l-1.125-0.457
			l-2.268-0.896c-2.438-0.949-3.973-1.828-4.605-2.637c-0.645-0.797-0.967-1.77-0.967-2.918c0-1.617,0.625-2.947,1.874-3.99
			c1.25-1.043,3.277-1.564,6.082-1.564c2.1,0,4.089,0.305,5.966,0.914v2.971c-2.16-0.773-4.191-1.16-6.092-1.16
			c-1.385,0-2.468,0.243-3.249,0.729s-1.171,1.093-1.171,1.819c0,0.703,0.34,1.266,1.02,1.688c0.668,0.422,1.759,0.908,3.272,1.459
			l2.217,0.809c2.03,0.738,3.453,1.541,4.271,2.408s1.226,1.951,1.226,3.252c0,1.699-0.653,3.097-1.96,4.192
			s-3.396,1.644-6.267,1.644C168.542,401.239,165.964,400.712,163.315,399.657z"/>
		<path fill="#231F20" d="M205.717,399.903c-1.535,0.645-2.648,1.028-3.34,1.151s-1.359,0.185-2.004,0.185
			c-1.371,0-2.625-0.264-3.762-0.791c-1.137-0.527-1.995-1.307-2.575-2.338s-0.87-2.625-0.87-4.781v-7.91h-4.904v-2.725h4.904v-7.91
			h3.27v7.91h8.737v2.725h-8.737v7.857c0,1.582,0.188,2.698,0.563,3.349c0.375,0.65,0.875,1.128,1.502,1.433
			s1.369,0.457,2.225,0.457c1.582,0,3.246-0.498,4.992-1.494V399.903z"/>
		<path fill="#231F20" d="M231.664,381.06v19.635h-3.27v-4.307c-1.055,1.617-2.227,2.83-3.516,3.639s-2.578,1.213-3.867,1.213
			c-1.148,0-2.2-0.308-3.155-0.923s-1.62-1.424-1.995-2.426s-0.562-2.956-0.562-5.862V381.06h3.27v11.373
			c0,1.887,0.091,3.132,0.272,3.735s0.516,1.099,1.002,1.485s1.011,0.58,1.573,0.58c1.148,0,2.382-0.542,3.7-1.626
			s2.411-2.452,3.278-4.104V381.06H231.664z"/>
		<path fill="#231F20" d="M248.117,400.694l-8.531-19.635h3.586l6.74,15.558l6.853-15.558h3.282l-8.596,19.635H248.117z"/>
		<path fill="#231F20" d="M268.759,400.694l-3.199-19.635h3.046l1.866,11.953l0.493,2.777l0.474-2.777l3.121-11.953h2.936
			l3.541,11.953l0.616,2.777l0.403-2.777l1.878-11.953h2.509l-3.182,19.635h-3.059l-3.762-12.639l-0.598-2.777h-0.088l-0.545,2.76
			l-3.27,12.656H268.759z"/>
		<path fill="#231F20" d="M296.191,400.694h-3.778l7.699-10.24l-7.21-9.395h4.2l5.089,6.63l4.985-6.63h3.712l-6.807,9.095
			l8.089,10.54h-4.199l-5.964-7.771L296.191,400.694z"/>
		<path fill="#231F20" d="M327.587,399.922l-9.068-18.862h3.601l7.225,14.745l6.033-14.745h3.286l-7.595,18.251
			c-1.605,3.846-3.133,6.4-4.58,7.664c-1.447,1.262-3.319,1.894-5.617,1.894c-0.996,0-1.887-0.088-2.672-0.264v-2.882
			c0.901,0.281,1.763,0.421,2.582,0.421c1.055,0,1.991-0.204,2.812-0.613c0.819-0.409,1.569-1.134,2.249-2.173
			s1.159-1.939,1.44-2.698L327.587,399.922z"/>
		<path fill="#231F20" d="M346.181,400.694v-3.006l12.035-13.904h-11.754v-2.725h16.084v2.725l-12.129,13.904h12.533v3.006H346.181z
			"/>
	</g>
	<g id="Montzoar">
		<path fill="#897C00" d="M142.149,278.741h-3.82v-36.375h4.756l8.404,23.953l8.414-23.953h4.629v36.375h-4.359v-23.18l0.117-3.188
			h-0.123l-1.032,3.188l-5.631,15.914h-4.731l-5.702-15.914l-0.915-3.188h-0.123l0.117,3.188V278.741z"/>
		<path fill="#897C00" d="M180.223,279.468c-3.746,0-6.744-1.309-8.992-3.926c-2.248-2.617-3.372-5.918-3.372-9.902
			s1.124-7.281,3.372-9.891c2.248-2.609,5.246-3.914,8.992-3.914c3.73,0,6.72,1.305,8.968,3.914s3.372,5.906,3.372,9.891
			s-1.124,7.285-3.372,9.902S183.954,279.468,180.223,279.468z M180.223,275.835c2.324,0,4.173-0.906,5.546-2.719
			s2.06-4.305,2.06-7.477c0-3.156-0.687-5.641-2.06-7.453s-3.222-2.719-5.546-2.719c-2.34,0-4.197,0.906-5.57,2.719
			c-1.373,1.812-2.059,4.297-2.059,7.453c0,3.172,0.687,5.664,2.059,7.477C176.026,274.929,177.883,275.835,180.223,275.835z"/>
		<path fill="#897C00" d="M198.258,278.741v-26.18h4.359v5.719c1.25-2.016,2.758-3.594,4.523-4.734s3.531-1.711,5.297-1.711
			c1.547,0,2.953,0.41,4.219,1.23s2.152,1.895,2.66,3.223s0.762,3.938,0.762,7.828v14.625h-4.359v-15.164
			c0-2.516-0.121-4.176-0.363-4.98s-0.688-1.465-1.336-1.98s-1.355-0.773-2.121-0.773c-1.531,0-3.176,0.727-4.934,2.18
			s-3.207,3.273-4.348,5.461v15.258H198.258z"/>
		<path fill="#897C00" d="M248.953,277.687c-2.047,0.859-3.531,1.371-4.453,1.535s-1.812,0.246-2.672,0.246
			c-1.828,0-3.5-0.352-5.016-1.055s-2.66-1.742-3.434-3.117s-1.16-3.5-1.16-6.375v-10.547h-6.539v-3.633h6.539v-10.547h4.359v10.547
			h11.648v3.633h-11.648v10.477c0,2.109,0.25,3.598,0.75,4.465s1.168,1.504,2.004,1.91s1.824,0.609,2.965,0.609
			c2.109,0,4.328-0.664,6.656-1.992V277.687z"/>
		<path fill="#897C00" d="M255.352,278.741v-4.008l16.047-18.539h-15.672v-3.633h21.445v3.633L261,274.733h16.711v4.008H255.352z"/>
		<path fill="#897C00" d="M295.441,279.468c-3.746,0-6.743-1.309-8.991-3.926c-2.247-2.617-3.372-5.918-3.372-9.902
			s1.125-7.281,3.372-9.891c2.248-2.609,5.245-3.914,8.991-3.914c3.73,0,6.721,1.305,8.969,3.914s3.371,5.906,3.371,9.891
			s-1.123,7.285-3.371,9.902S299.172,279.468,295.441,279.468z M295.441,275.835c2.324,0,4.174-0.906,5.547-2.719
			s2.059-4.305,2.059-7.477c0-3.156-0.686-5.641-2.059-7.453s-3.223-2.719-5.547-2.719c-2.34,0-4.196,0.906-5.569,2.719
			c-1.372,1.812-2.06,4.297-2.06,7.453c0,3.172,0.688,5.664,2.06,7.477C291.245,274.929,293.102,275.835,295.441,275.835z"/>
		<path fill="#897C00" d="M330.686,272.885c-1.328,2.179-2.927,3.82-4.795,4.926c-1.867,1.104-3.582,1.657-5.146,1.657
			c-2.188,0-4.153-0.945-5.896-2.836c-1.744-1.891-2.615-4.758-2.615-8.602c0-3.031,0.579-5.738,1.736-8.121
			c1.158-2.383,2.707-4.266,4.646-5.648s4.341-2.074,7.203-2.074c0.83,0,2.078,0.086,3.746,0.258c0.25,0.031,0.624,0.07,1.123,0.117
			h4.373v18.487c0,3.158,0.336,5.723,1.008,7.692h-4.547C331.173,277.311,330.893,275.357,330.686,272.885z M330.703,267.67v-11.24
			c-1.549-0.406-2.989-0.61-4.319-0.61c-2.692,0-4.935,1.04-6.727,3.121s-2.688,4.912-2.688,8.494c0,2.598,0.489,4.557,1.468,5.879
			c0.978,1.321,2.093,1.982,3.345,1.982c1.362,0,2.865-0.688,4.508-2.065C327.934,271.854,329.404,270,330.703,267.67z"/>
		<path fill="#897C00" d="M344.508,278.741v-26.18h4.359v5.719c1.359-2.156,2.918-3.77,4.676-4.84s3.715-1.605,5.871-1.605
			c1.578,0,3.156,0.242,4.734,0.727v9.445h-4.195v-5.977c-0.734-0.125-1.312-0.188-1.734-0.188c-1.625,0-3.219,0.641-4.781,1.922
			s-3.086,3.203-4.57,5.766v15.211H344.508z"/>
	</g>
	<g id="LargeLowercaseA">
		<path fill="#FFFFFF" d="M343.592,185.037c-4.981,8.171-10.977,14.329-17.98,18.472c-7.003,4.143-13.436,6.215-19.297,6.215
			c-8.205,0-15.576-3.544-22.111-10.635c-6.536-7.089-9.803-17.842-9.803-32.256c0-11.367,2.17-21.518,6.511-30.454
			c4.341-8.935,10.148-15.996,17.423-21.182c7.273-5.186,16.277-7.778,27.014-7.778c3.109,0,7.791,0.323,14.048,0.967
			c0.936,0.118,2.339,0.264,4.211,0.439h16.399v69.327c0,11.844,1.26,21.46,3.779,28.847h-17.051
			C345.417,201.633,344.369,194.312,343.592,185.037z M343.658,165.481v-42.15c-5.812-1.524-11.212-2.288-16.199-2.288
			c-10.097,0-18.504,3.901-25.225,11.705s-10.08,18.42-10.08,31.854c0,9.739,1.833,17.086,5.503,22.044
			c3.668,4.958,7.85,7.435,12.545,7.435c5.105,0,10.74-2.581,16.903-7.744C333.27,181.174,338.786,174.222,343.658,165.481z"/>
	</g>
	<g id="AaEeGgQqRrSs">
		<path fill="#231F20" d="M35.125,149.495h-4.547l11.211-36.375h4.8l11.27,36.375h-4.992l-2.483-7.992h-12.79L35.125,149.495z
			 M38.715,137.87h10.612l-4.386-13.804l-1.017-3.693l-0.92,3.694L38.715,137.87z"/>
		<path fill="#231F20" d="M79.451,143.638c-1.329,2.179-2.927,3.821-4.795,4.926c-1.868,1.104-3.583,1.657-5.146,1.657
			c-2.188,0-4.153-0.945-5.896-2.836c-1.743-1.891-2.614-4.758-2.614-8.602c0-3.031,0.579-5.738,1.736-8.121
			c1.157-2.383,2.706-4.266,4.646-5.648c1.939-1.383,4.341-2.074,7.204-2.074c0.829,0,2.078,0.086,3.746,0.258
			c0.25,0.031,0.624,0.07,1.123,0.117h4.373v18.487c0,3.158,0.336,5.723,1.008,7.692h-4.547
			C79.938,148.064,79.658,146.112,79.451,143.638z M79.469,138.423v-11.24c-1.55-0.407-2.99-0.61-4.32-0.61
			c-2.692,0-4.934,1.041-6.727,3.121c-1.792,2.081-2.688,4.912-2.688,8.494c0,2.598,0.489,4.557,1.467,5.879
			c0.978,1.322,2.093,1.982,3.345,1.982c1.362,0,2.864-0.688,4.508-2.065C76.698,142.608,78.169,140.754,79.469,138.423z"/>
		<path fill="#231F20" d="M133.897,145.487v4.008h-19.641V113.12h19.289v3.656h-14.555v12.352h13.102v3.633h-13.102v12.727H133.897z
			"/>
		<path fill="#231F20" d="M163.709,147.753c-3.484,1.646-6.781,2.469-9.891,2.469c-2.359,0-4.469-0.585-6.328-1.756
			s-3.348-2.845-4.465-5.023s-1.676-4.508-1.676-6.99c0-2.389,0.531-4.684,1.594-6.885s2.547-3.915,4.453-5.14
			s4.031-1.838,6.375-1.838c3.109,0,5.605,1.108,7.488,3.323c1.883,2.215,2.824,5.631,2.824,10.249v0.936h-18.047
			c0,1.817,0.379,3.478,1.137,4.981c0.758,1.503,1.754,2.631,2.988,3.383c1.234,0.751,2.641,1.127,4.219,1.127
			c2.812,0,5.922-0.939,9.328-2.819V147.753z M146.295,133.839h13.055v-0.631c0-2.134-0.523-3.832-1.57-5.094
			s-2.445-1.893-4.195-1.893c-1.766,0-3.293,0.643-4.582,1.928S146.811,131.331,146.295,133.839z"/>
		<path fill="#231F20" d="M214.693,149.472c-2.562,0.75-4.914,1.125-7.055,1.125c-3.031,0-5.73-0.75-8.098-2.25
			c-2.368-1.5-4.223-3.762-5.567-6.785s-2.016-6.441-2.016-10.254c0-3.766,0.656-7.148,1.969-10.148s3.164-5.273,5.555-6.82
			c2.391-1.547,5.016-2.32,7.875-2.32c2.156,0,4.594,0.505,7.312,1.514v4.312c-2.516-1.462-5.016-2.193-7.5-2.193
			c-1.875,0-3.59,0.641-5.145,1.923c-1.555,1.283-2.805,3.163-3.75,5.641s-1.418,5.188-1.418,8.127c0,3.94,0.899,7.529,2.696,10.766
			c1.797,3.237,4.633,4.855,8.508,4.855c0.5,0,1.133-0.039,1.898-0.117v-11.719h-3.633v-3.633h8.367V149.472z"/>
		<path fill="#231F20" d="M239.138,143.609c-1.33,2.188-2.93,3.838-4.799,4.947c-1.87,1.11-3.587,1.665-5.151,1.665
			c-2.19,0-4.157-0.945-5.902-2.836c-1.744-1.891-2.616-4.758-2.616-8.602c0-3.031,0.578-5.738,1.736-8.121
			c1.157-2.383,2.706-4.266,4.646-5.648c1.939-1.383,4.34-2.074,7.203-2.074c0.829,0,2.078,0.086,3.746,0.258
			c0.249,0.031,0.624,0.07,1.123,0.117h4.373v18.516c0,4.406-0.057,7.098-0.17,8.074c-0.114,0.977-0.301,1.965-0.559,2.965
			c-0.625,2.328-2.052,4.164-4.28,5.508s-4.923,2.016-8.083,2.016c-3.175,0-6.389-0.812-9.643-2.438v-4.406
			c1.235,0.844,2.757,1.59,4.564,2.238c1.807,0.648,3.555,0.973,5.245,0.973c1.329,0,2.589-0.211,3.778-0.633
			c1.188-0.422,2.15-1.032,2.886-1.829c0.735-0.797,1.236-1.723,1.502-2.778c0.267-1.055,0.399-2.458,0.399-4.208V143.609z
			 M239.138,138.423v-11.24c-1.55-0.407-2.99-0.61-4.32-0.61c-2.691,0-4.934,1.041-6.727,3.121
			c-1.792,2.081-2.688,4.912-2.688,8.494c0,2.598,0.489,4.557,1.468,5.879c0.978,1.322,2.093,1.982,3.345,1.982
			c1.361,0,2.864-0.688,4.508-2.065C236.367,142.608,237.839,140.754,239.138,138.423z"/>
		<path fill="#231F20" d="M47.289,207.775c1.094,1.812,2.07,3.07,2.93,3.773s1.977,1.227,3.352,1.57s2.898,0.516,4.57,0.516h0.422
			v3.633h-1.102c-3.016,0-5.211-0.312-6.586-0.938s-2.672-1.586-3.891-2.883s-2.328-3.062-3.328-5.297
			c-2.859-0.312-5.121-1.22-6.785-2.72s-2.98-3.823-3.949-6.965s-1.453-6.52-1.453-10.131c0-5.284,1.055-9.724,3.164-13.32
			s5.297-5.394,9.562-5.394c4.125,0,7.277,1.735,9.457,5.207c2.18,3.471,3.27,8.169,3.27,14.094c0,2.814-0.285,5.507-0.855,8.079
			c-0.57,2.572-1.555,4.831-2.953,6.778S49.773,207.056,47.289,207.775z M44.195,173.251c-2.281,0-4.184,1.294-5.707,3.882
			s-2.285,6.509-2.285,11.763s0.762,9.175,2.285,11.763s3.426,3.882,5.707,3.882s4.184-1.294,5.707-3.882s2.285-6.509,2.285-11.763
			s-0.762-9.175-2.285-11.763S46.477,173.251,44.195,173.251z"/>
		<path fill="#231F20" d="M79.75,201.209c-1.33,2.188-2.93,3.838-4.799,4.947c-1.87,1.11-3.586,1.665-5.151,1.665
			c-2.19,0-4.158-0.945-5.902-2.836c-1.745-1.891-2.617-4.758-2.617-8.602c0-3.031,0.579-5.738,1.736-8.121
			c1.157-2.383,2.706-4.266,4.646-5.648c1.939-1.383,4.341-2.074,7.204-2.074c0.829,0,2.078,0.086,3.746,0.258
			c0.25,0.031,0.624,0.07,1.123,0.117h4.373v36.352H79.75V201.209z M79.75,196.023v-11.24c-1.55-0.407-2.99-0.61-4.32-0.61
			c-2.692,0-4.934,1.041-6.727,3.121c-1.792,2.081-2.688,4.912-2.688,8.494c0,2.598,0.489,4.557,1.467,5.879
			c0.978,1.322,2.093,1.982,3.345,1.982c1.362,0,2.864-0.688,4.508-2.065C76.979,200.208,78.451,198.354,79.75,196.023z"/>
		<path fill="#231F20" d="M117.725,191.626v15.469h-4.734V170.72h9.716c3.168,0,5.502,0.324,7,0.972
			c1.499,0.647,2.657,1.627,3.477,2.938c0.82,1.311,1.229,2.724,1.229,4.237c0,1.405-0.273,2.817-0.818,4.238
			c-0.546,1.42-1.298,2.689-2.257,3.805c-0.958,1.116-2.342,2.173-4.15,3.172l10.519,17.013h-5.638l-9.632-15.469H117.725z
			 M117.725,187.994h6.611c1.486-0.813,2.592-1.644,3.318-2.489s1.275-1.745,1.65-2.7c0.374-0.955,0.562-1.909,0.562-2.864
			c0-1.706-0.62-3.064-1.859-4.074c-1.24-1.009-3.49-1.514-6.749-1.514h-3.532V187.994z"/>
		<path fill="#231F20" d="M144.163,207.095v-26.18h4.359v5.719c1.359-2.156,2.918-3.77,4.676-4.84s3.715-1.605,5.871-1.605
			c1.578,0,3.156,0.242,4.734,0.727v9.445h-4.195v-5.977c-0.734-0.125-1.312-0.188-1.734-0.188c-1.625,0-3.219,0.641-4.781,1.922
			s-3.086,3.203-4.57,5.766v15.211H144.163z"/>
		<path fill="#231F20" d="M192.873,206.322v-4.453c3.74,1.797,7.137,2.695,10.192,2.695c1.277,0,2.5-0.247,3.67-0.739
			c1.168-0.493,2.053-1.201,2.652-2.124c0.6-0.923,0.9-1.925,0.9-3.005c0-1.267-0.414-2.453-1.238-3.556
			c-0.824-1.104-2.373-2.32-4.646-3.65l-2.373-1.374l-2.412-1.396c-4.262-2.515-6.393-5.643-6.393-9.383
			c0-2.739,0.949-5.043,2.848-6.913c1.899-1.87,4.864-2.805,8.895-2.805c2.594,0,5.102,0.367,7.523,1.102v4.055
			c-2.668-1.016-5.266-1.523-7.793-1.523c-2.012,0-3.639,0.532-4.879,1.597c-1.24,1.064-1.859,2.348-1.859,3.851
			c0,1.488,0.475,2.725,1.422,3.711c0.949,0.986,2.162,1.894,3.641,2.724l1.846,1.109l2.281,1.371l1.877,1.129
			c3.996,2.44,5.996,5.504,5.996,9.19c0,2.812-1.023,5.225-3.068,7.239c-2.045,2.015-5.322,3.022-9.832,3.022
			c-1.438,0-2.807-0.121-4.109-0.363C196.708,207.591,194.995,207.087,192.873,206.322z"/>
		<path fill="#231F20" d="M221.935,205.712v-4.617c1.75,1.141,3.602,1.941,5.555,2.402s3.609,0.691,4.969,0.691
			c2.203,0,3.789-0.355,4.758-1.066s1.453-1.598,1.453-2.66c0-0.703-0.227-1.305-0.68-1.805s-1.578-1.117-3.375-1.852l-1.5-0.609
			l-3.023-1.195c-3.25-1.266-5.297-2.438-6.141-3.516c-0.859-1.062-1.289-2.359-1.289-3.891c0-2.156,0.833-3.93,2.499-5.32
			s4.369-2.086,8.108-2.086c2.8,0,5.451,0.406,7.955,1.219v3.961c-2.88-1.031-5.588-1.547-8.123-1.547
			c-1.847,0-3.291,0.324-4.331,0.973c-1.041,0.648-1.562,1.457-1.562,2.426c0,0.938,0.453,1.688,1.359,2.25
			c0.891,0.562,2.345,1.211,4.363,1.945l2.956,1.078c2.706,0.984,4.604,2.055,5.694,3.211s1.635,2.602,1.635,4.336
			c0,2.266-0.871,4.129-2.613,5.59s-4.527,2.191-8.355,2.191C228.903,207.822,225.466,207.119,221.935,205.712z"/>
	</g>
	<g id="Monaco">
		<path fill="#404041" d="M34.938,67.879h-3.82V31.504h4.756l8.404,23.953l8.414-23.953h4.629v36.375h-4.359v-23.18l0.117-3.188
			h-0.123l-1.032,3.188l-5.631,15.914H41.56l-5.702-15.914l-0.915-3.188H34.82l0.117,3.188V67.879z"/>
		<path fill="#404041" d="M73.012,68.605c-3.746,0-6.744-1.309-8.992-3.926c-2.248-2.617-3.372-5.918-3.372-9.902
			s1.124-7.281,3.372-9.891c2.248-2.609,5.246-3.914,8.992-3.914c3.73,0,6.72,1.305,8.968,3.914s3.372,5.906,3.372,9.891
			s-1.124,7.285-3.372,9.902S76.742,68.605,73.012,68.605z M73.012,64.973c2.324,0,4.173-0.906,5.546-2.719s2.06-4.305,2.06-7.477
			c0-3.156-0.687-5.641-2.06-7.453s-3.222-2.719-5.546-2.719c-2.34,0-4.197,0.906-5.57,2.719c-1.373,1.812-2.059,4.297-2.059,7.453
			c0,3.172,0.687,5.664,2.059,7.477C68.815,64.066,70.672,64.973,73.012,64.973z"/>
		<path fill="#404041" d="M91.047,67.879v-26.18h4.359v5.719c1.25-2.016,2.758-3.594,4.523-4.734s3.531-1.711,5.297-1.711
			c1.547,0,2.953,0.41,4.219,1.23s2.152,1.895,2.66,3.223s0.762,3.938,0.762,7.828v14.625h-4.359V52.715
			c0-2.516-0.121-4.176-0.363-4.98s-0.688-1.465-1.336-1.98s-1.355-0.773-2.121-0.773c-1.531,0-3.176,0.727-4.934,2.18
			s-3.207,3.273-4.348,5.461v15.258H91.047z"/>
		<path fill="#404041" d="M137.061,62.022c-1.329,2.179-2.927,3.821-4.795,4.926c-1.868,1.104-3.583,1.657-5.146,1.657
			c-2.188,0-4.153-0.945-5.896-2.836c-1.743-1.891-2.614-4.758-2.614-8.602c0-3.031,0.579-5.738,1.736-8.121
			c1.157-2.383,2.706-4.266,4.646-5.648c1.939-1.383,4.341-2.074,7.204-2.074c0.829,0,2.078,0.086,3.746,0.258
			c0.25,0.031,0.624,0.07,1.123,0.117h4.373v18.487c0,3.158,0.336,5.723,1.008,7.692h-4.547
			C137.547,66.448,137.268,64.496,137.061,62.022z M137.078,56.807v-11.24c-1.55-0.407-2.99-0.61-4.32-0.61
			c-2.692,0-4.934,1.041-6.727,3.121c-1.792,2.081-2.688,4.912-2.688,8.494c0,2.598,0.489,4.557,1.467,5.879
			c0.978,1.322,2.093,1.982,3.345,1.982c1.362,0,2.864-0.688,4.508-2.065C134.308,60.992,135.779,59.138,137.078,56.807z"/>
		<path fill="#404041" d="M170.688,67.129c-2.922,0.984-5.703,1.477-8.344,1.477c-2.625,0-4.957-0.605-6.996-1.816
			s-3.629-2.852-4.77-4.922s-1.711-4.426-1.711-7.066c0-3.969,1.293-7.266,3.879-9.891s5.707-3.938,9.363-3.938
			c2.703,0,5.562,0.508,8.578,1.523v4.195c-3.047-1.391-5.773-2.086-8.18-2.086c-1.594,0-3.094,0.395-4.5,1.184
			s-2.492,2.02-3.258,3.691s-1.148,3.391-1.148,5.156c0,2.359,0.738,4.609,2.215,6.75s3.793,3.211,6.949,3.211
			c0.953,0,1.891-0.066,2.812-0.199s2.625-0.621,5.109-1.465V67.129z"/>
		<path fill="#404041" d="M188.23,68.605c-3.746,0-6.744-1.309-8.992-3.926c-2.248-2.617-3.372-5.918-3.372-9.902
			s1.124-7.281,3.372-9.891c2.248-2.609,5.246-3.914,8.992-3.914c3.73,0,6.72,1.305,8.968,3.914s3.372,5.906,3.372,9.891
			s-1.124,7.285-3.372,9.902S191.961,68.605,188.23,68.605z M188.23,64.973c2.324,0,4.173-0.906,5.546-2.719s2.06-4.305,2.06-7.477
			c0-3.156-0.687-5.641-2.06-7.453s-3.222-2.719-5.546-2.719c-2.34,0-4.197,0.906-5.57,2.719c-1.373,1.812-2.059,4.297-2.059,7.453
			c0,3.172,0.687,5.664,2.059,7.477C184.034,64.066,185.891,64.973,188.23,64.973z"/>
	</g>
</g>
</svg>
