<?xml version="1.0" encoding="utf-8"?>
<!-- Generator: Adobe Illustrator 12.0.0, SVG Export Plug-In . SVG Version: 6.00 Build 51448)  -->
<!DOCTYPE svg PUBLIC "-//W3C//DTD SVG 1.1//EN" "http://www.w3.org/Graphics/SVG/1.1/DTD/svg11.dtd" [
	<!ENTITY ns_svg "http://www.w3.org/2000/svg">
	<!ENTITY ns_xlink "http://www.w3.org/1999/xlink">
]>
<svg  version="1.1" id="Layer_1" xmlns="&ns_svg;" xmlns:xlink="&ns_xlink;" width="337.421493774" height="296.365234122"
	 viewBox="0 0 640.962 562.972" overflow="visible" enable-background="new 0 0 640.962 562.972" xml:space="preserve">
<g>
	<path fill-rule="evenodd" clip-rule="evenodd" d="M328.15,562.972c-6.617-6.008-6.793-10.711-6.793-20.289
		c-1.305,0-2.697-1.828-4.527-1.828c-1.654,2.176-2.875,3.57-3.395,6.094c-0.785,0.176-1.482,0.348-2.18,0.609
		c-0.26-0.957-0.609-1.914-0.957-2.785c-5.836-10.102-0.174-14.543,5.66-22.992c0.174-1.566,0.436-3.047,0.609-4.527
		c-1.393-8.449-1.393-8.449-3.309-16.113c-0.088-1.391-0.174-2.785-0.262-4.09c3.309-6.621,7.055-13.586,9.492-20.641
		c0-2.699-1.045-3.398-3.83-3.57c-112.777,8.012-190.633-3.57-288.953-84.125c-7.576-8.359-36.75-37.621-28.129-41.02
		c63.313,49.203,169.383,77.855,249.678,61.832c6.529-2.09,6.529-2.09,8.881-2.352c0,1.395-0.086,3.309,1.568,3.309
		c0.871-4.094,3.396-6.531,6.879-7.402c0.436-1.828,1.133-2.785,2.352-4.266c2.176,0,6.531,2.613,7.838,2.438
		c0.348-1.566,0.697-4.18,1.045-5.66c3.832-0.695,10.016,0.871,11.408,4.789c1.395-1.395-0.697-8.184,0-10.797
		c3.744,0,6.619,2.523,10.189,2.176c0.174-2.613-1.045-4.527-1.221-7.227c2.963,0,8.273-0.523,11.67-0.523
		c-1.219-4.789-8.273-1.305-9.316-7.316c4.006,0,16.023,2.352,16.023-3.219c-3.135-1.395-5.313-2.441-6.531-3.66
		c2.525-3.832,13.934-5.051,18.289-5.398c0.172-5.746-4.008-0.785-7.664-3.66c-0.525-7.227,13.148-9.23,18.287-11.844
		c0-5.313-4.355-1.828-8.709-2.438c-1.395-4.613,5.922-7.402,9.057-10.102c0-5.137-6.443-0.695-10.275-1.305
		c0-4.27,11.322-13.672,15.066-16.809c0-11.234-13.76,1.305-14.457-5.051c4.877-3.746,18.461-8.188,18.813-13.586
		c-3.572-0.695-10.365,1.133-10.627-2.875c2.787-2.961,8.971-5.746,12.889-7.75c0.348-7.662-12.977,0.695-10.799-4.789
		c4.615-0.697,18.896-10.102,20.291-14.281c-1.305-5.4-10.363-0.785-13.672-1.221c0.871-6.01,23.34-15.24,26.211-16.719
		c0.438-0.959,0.785-2.004,1.223-2.963c-4.707-0.871-7.316-0.609-11.934,0.871c-0.262-0.174-0.434-0.436-0.609-0.609
		c3.484-3.484,13.5-10.449,17.332-10.449c-1.305-6.531-6.707-0.176-7.75-5.314c4.961-1.393,9.23-5.049,13.672-7.836
		c-0.176-0.785-0.262-1.654-0.438-2.525c-2.523-1.219-8.098,0.957-8.969-0.871c3.918-5.836,15.414-6.705,20.988-9.668
		c2.004-7.314-7.84-1.305-8.273-6.008c5.66-3.57,13.324-4.877,20.203-7.229c0.176-3.223-1.305-2.439-4.355-3.482
		c1.219-6.531,18.551-4.441,18.551-12.715c-5.313-0.871-5.66-0.959-12.629,0.783c0.438-3.744,15.066-9.318,18.727-10.016
		c-1.742-6.793-14.371,1.482-14.805-3.135c3.57-3.57,14.457-6.008,19.07-7.836c2.266-4.529-4.527-3.658-6.098-6.357
		c1.656-3.223,10.801-5.924,14.109-7.578c3.57-5.834-5.66-0.609-4.266-5.834c6.355-2.178,10.449-6.357,16.547-8.795
		c0-3.92-0.352-5.053-0.176-9.145c-4.094-0.871-5.488,3.047-9.23,2.699c-0.438-4.18,4.703-6.27,4.352-12.018
		c-5.137,0-7.137,6.531-10.883,6.096c1.305-9.754,15.328-19.42,7.574-20.203c-1.219,0.783-17.152,12.365-19.418,10.189
		c3.832-2.266,17.766-23.949,12.277-24.473c-2.785,1.395-13.063,7.402-15.59,7.055c0.09-3.832,14.633-16.111,17.422-18.027
		c2.262-0.957,4.703-3.135,3.395-5.662c-9.145-0.26-18.551,14.109-26.91,10.887c-0.172-0.609,3.57-3.482,3.484-4.092
		c2.262-2.264,28.738-24.646,28.738-27.605c-6.359-3.137-23.516,9.926-31.613,9.926c38.23-40.756,64.969-55.734,80.992-59.305
		c12.887-2.613,23.688,2.264,36.488,5.051c0,4.268,20.117-2.961,23.25-2.961c7.664,1.045,15.328,7.055,17.594,14.629
		c0,1.918,0.609,3.92,0.609,5.924c6.094,19.594,53.992,12.627,61.48,34.051c0,0.086,0,0.174,0,0.348
		c-0.52,8.709,0.09,14.107,2.09,23.688c-2.262,6.619-2.699,20.117-10.188,22.816c-6.707,0.436-6.707,0.436-6.879,0.871
		c-5.313,3.83-11.063,9.404-17.594,10.625c0,0-26.82-9.842-33.961-4.965c-20.293,6.793-27.52,12.977-32.398,33.963
		c-3.57,20.379-1.566,33.006,6.445,51.729c1.742,0.35,3.223,0.09,5.051,0c10.277,0,33.879-5.746,31.352,11.846
		c-2.613,3.135-4.617,5.139-5.398,9.057c-0.176,1.654-0.262,3.309-0.348,5.051c13.41,24.209-7.664,52.252-18.203,31.352
		c-1.305-3.396-0.262-5.748,0.176-6.793c2.09-0.088,3.742,0.174,5.484-0.957c0.09-3.137,0.09-3.137-0.609-4.27
		c-3.133-1.043-7.227-2.697-10.277-3.395c0-1.221-0.086-2.525-0.086-3.658c1.57-1.654,6.012-11.496,6.27-13.76
		c0-1.219,0-1.219-2.699-5.398c-3.57-0.35-7.926-2.613-13.063,2.873c-3.656,44.326,7.664,51.729-20.641,119.223
		c0,1.48,0.871,2.961,0.871,4.441c21.773,21.422,26.215,26.297,24.473,54.863c4.441,27.434,10.711,53.82,10.711,81.773
		c3.484,18.984,5.574,27.781,15.938,38.84c4.18,2.613,8.883,3.223,14.281,3.223c14.109-0.609,10.363-5.488,24.734,3.918
		c2.09,2.438,8.793,10.887,10.102,13.41c0.695,2.527,1.48,2.004,1.48,5.055c-4.094-0.613-3.66-1.219-7.141-2.965
		c-1.57,1.309-1.48,1.656-2.09,3.574c1.305,2.523,1.48,4.527,1.48,7.227c-1.656,0-5.922-1.219-5.922-3.66
		c-2.613,0-3.57-1.043-4.531,1.223c-1.566,0.262-9.402,8.707-14.891,10.188c-2.352,2.352-39.797-6.184-63.309-0.609
		c0-1.828-2.789-2.699-3.223-5.922c0-10.016,3.043-22.992-2.355-31.09c-4.961,1.395-9.141,7.141-9.402,10.711
		c-10.711-6.965,3.047-24.906-2.352-28.563c4.441-13.762-11.148-19.855-14.633-47.898c-2.961-23.426-22.379-36.574-29.172-53.035
		c-18.551,9.316-34.66,18.375-54.602,24.473c-31.176,19.246-43.809,65.574-46.855,80.902c-3.395,13.934,5.922,21.246,16.723,22.293
		c0-0.086,0-0.172,0-0.172c8.098,0.434,17.938-5.75,23.25,3.219c4.008,2.699,21.336,16.113,20.465,23.426
		c-4.875,0.699-5.137-3.656-12.102-3.133c-19.508,8.445-10.887,9.578-34.055,9.578C362.376,559.578,346.351,557.312,328.15,562.972
		L328.15,562.972z"/>
	<path fill-rule="evenodd" clip-rule="evenodd" fill="#464444" d="M540.119,556.964c1.133-0.086,2.352-0.176,3.57-0.262
		c-0.262,0.086-0.434,0.176-0.609,0.262C542.037,556.964,541.076,556.964,540.119,556.964L540.119,556.964z"/>
	<path fill-rule="evenodd" clip-rule="evenodd" fill="#ED1C24" d="M334.16,550.433c-4.703-3.137-3.135-10.973-3.311-15.852
		c0-0.258,0-0.609,0-0.871c-1.305,0-2.785-2.09-4.092-2.961c-0.521-0.867-1.045-1.828-1.568-2.699
		c2.266-3.395,3.57-2.871,3.57-6.879c-0.174,0-0.434,0-0.609,0c-1.307-3.223-2.438-7.488-1.131-10.797
		c0.609-0.523,0.609-0.523,0.348-3.832c-0.348-0.09-0.609-0.176-0.959-0.262c-8.621-14.547,9.494-24.211,9.494-37.535
		c2.35-6.965,31.959-15.152,37.619-16.98c2.703-0.438,2.09,0.957,2.09,2.352c-14.543,13.934-17.328,27.605-18.723,46.762
		c-2,3.922-6.441,9.234-10.797,10.973c-0.088,1.047-0.176,2.004-0.262,3.051c5.227,0,4.354-0.785,8.621-2.09
		c1.914,0.957,2.438,1.219,2.438,3.309c-3.57,8.012-17.854,5.051-19.158,9.84c0.521,0,0.959,0,1.48,0
		c3.744,0.609,11.408,0.523,10.451,6.27c-1.83,1.656-5.834,3.137-6.793,5.316c0.174,0.344,0.434,0.691,0.697,1.043
		c5.746-0.086,7.314-0.871,12.713-2.438c1.133,0.086,2.352,0.172,3.57,0.258c4.703,5.75,19.598-0.434,24.734,2.965
		c0.172,2.348,1.566,4.266,1.566,5.66c4.617,0,8.012-1.656,13.063-2.09c4.527,0.262,5.051-1.047,8.449,1.48
		c-0.262,4.18-2.789,4.527-6.621,6.27C379.357,550.695,355.146,551.914,334.16,550.433L334.16,550.433z"/>
	<path fill-rule="evenodd" clip-rule="evenodd" fill="#5E4B44" d="M540.728,543.816c1.566,0,3.137,0,4.703,0
		c-1.395,1.129-1.742,1.391-3.57,1.566C541.423,544.859,541.076,544.335,540.728,543.816L540.728,543.816z"/>
	<path fill-rule="evenodd" clip-rule="evenodd" fill="#423A38" d="M601.513,536.152c1.395,0,2.789,0,4.27,0c0,0.172,0,0.348,0,0.52
		c-1.48,0-2.875,0-4.27,0C601.513,536.5,601.513,536.324,601.513,536.152L601.513,536.152z"/>
	<path fill-rule="evenodd" clip-rule="evenodd" fill="#423A38" d="M543.08,520.562c0.609-1.219,0.609-1.219,1.742-1.742
		c-0.09,0.957-0.176,1.918-0.262,2.961c0.695,0.438,2.438,0,2.961,0.609c-0.348,0.176-0.785,0.348-1.133,0.609
		c-1.047-0.172-2.004-0.348-2.875-0.523C543.341,521.871,543.166,521.171,543.08,520.562L543.08,520.562z"/>
	<path fill-rule="evenodd" clip-rule="evenodd" fill="#423A38" d="M538.9,210.187c0-0.174,0-0.436,0-0.609c0.609,0,1.219,0,1.828,0
		c0.695,0,1.48,0,2.352,0C541.599,209.751,540.291,210.013,538.9,210.187L538.9,210.187z"/>
	<path fill-rule="evenodd" clip-rule="evenodd" d="M556.837,46.726c-0.172-0.26-0.348-0.521-0.52-0.783
		c2.262-0.174,2.262-0.174,2.871,0.436C558.318,46.466,557.537,46.554,556.837,46.726L556.837,46.726z"/>
	<path fill-rule="evenodd" clip-rule="evenodd" fill="#464444" d="M563.107,38.802c-2.262-1.742-1.305-3.311-0.348-5.834
		c5.313,0.521,5.402,0.348,4.793,5.311C566.158,38.455,564.416,38.628,563.107,38.802L563.107,38.802z"/>
	<path fill-rule="evenodd" clip-rule="evenodd" fill="#FFFFFF" d="M563.369,37.757c-0.781-1.307-0.957-1.568-0.609-2.961
		c1.223,0.088,2.441,0.174,3.746,0.348c0,0.697,0,1.393,0,2.09C565.458,37.41,564.416,37.582,563.369,37.757L563.369,37.757z"/>
	<path fill-rule="evenodd" clip-rule="evenodd" fill="#464444" d="M553.181,28.787c4.879,0.262,8.188,1.742,5.137,6.271
		c-2,0-3.48,0.174-5.313-0.785C553.095,32.445,553.095,30.617,553.181,28.787L553.181,28.787z"/>
	<path fill-rule="evenodd" clip-rule="evenodd" fill="#FFFFFF" d="M558.58,33.576c-1.305,0.959-1.914,0.873-3.57,0.873
		c-0.785-0.783-0.785-0.783-0.957-3.223c0.957-1.133,2.09-0.783,3.484-0.783C557.884,31.4,558.232,32.445,558.58,33.576
		L558.58,33.576z"/>
	<path fill-rule="evenodd" clip-rule="evenodd" fill="#FFFFFF" d="M625.986,98.021c-0.523-1.047-1.047-2.09-1.656-3.137
		c-1.305-0.174-2.09,2.701-5.922,2.527c0-2.004-0.086-5.574,0.871-7.316c1.133,0.088,2.266,0.088,3.484,0.174
		c0.262,0.697,0.957,2.787,1.305,3.572c1.918-2.092,3.746-2.699,6.098-2.699c1.828,1.74,0.871,4.613-0.438,6.355
		C628.509,97.671,627.205,97.847,625.986,98.021L625.986,98.021z"/>
	<path fill-rule="evenodd" clip-rule="evenodd" fill="#FFFFFF" d="M610.744,97.671c-0.957-1.828-1.133-4.615-1.133-6.879
		c1.57-1.568,3.309-2.266,5.664-1.742C615.537,94.363,616.404,95.494,610.744,97.671L610.744,97.671z"/>
	<path fill-rule="evenodd" clip-rule="evenodd" fill="#FFFFFF" d="M603.951,95.146c-1.305-1.654-1.48-5.051-0.434-6.967
		c1.047,0,2.438,0.697,3.484,0.697C609.005,92.361,607.001,94.625,603.951,95.146L603.951,95.146z"/>
	<path fill-rule="evenodd" clip-rule="evenodd" fill="#FFFFFF" d="M597.509,93.406c-1.742-0.871-1.57-2.092-2.527-3.746
		c-2.176-0.086-4.18,1.133-5.484,0.785c-2.004-0.697-2.266-3.398,0-7.49c1.391-0.088,4.004,0.086,5.051,1.654
		c0.609,0.959-0.438,3.396,0.172,3.746c1.305,0.609,2.961-2.613,5.051-2.613c1.395,1.395,0.609,4.354,0.609,6.27
		C599.599,92.185,598.205,93.144,597.509,93.406L597.509,93.406z"/>
	<path fill-rule="evenodd" clip-rule="evenodd" fill="#FFFFFF" d="M580.177,87.046c-1.914-2.176-0.871-4.266-0.871-7.139
		c3.047-0.176,6.012-0.873,6.445,2.611C584.009,84.173,582.443,86.177,580.177,87.046L580.177,87.046z"/>
	<path fill-rule="evenodd" clip-rule="evenodd" fill="#ED1C24" d="M608.83,533.539c0.348,3.656-4.879,2.613-7.316,2.613
		c-1.047-0.785-1.914-1.395-2.875-2.355C602.298,530.578,605.607,532.32,608.83,533.539L608.83,533.539z"/>
	<path fill-rule="evenodd" clip-rule="evenodd" fill="#ED1C24" d="M527.228,194.425c1.047-1.133,4.441-4.877,5.66-2.09
		c3.574,3.482,3.484,9.316,8.102,11.32c2.961-2.787,26.996-1.307,31.523-1.133c4.789,4.182-0.871,8.623-0.52,19.072
		c-0.262,3.482-6.27,4.963-6.27,1.133c-1.832-4.877,0.953-11.496-5.316-13.76c-9.316,0-16.371-0.262-27.605,1.568
		C528.798,205.746,527.49,200.607,527.228,194.425L527.228,194.425z"/>
	<path fill-rule="evenodd" clip-rule="evenodd" fill="#CE4D37" d="M575.474,247.111c-4.613,1.83-5.574,3.658-5.574-1.654
		c2.094-2.697,3.137-5.137,6.273-5.398C576.607,241.363,576.955,246.503,575.474,247.111L575.474,247.111z"/>
	<path fill-rule="evenodd" clip-rule="evenodd" fill="#ED1C24" d="M512.947,324.792c-22.383-26.824-45.109-56.17-79.422-67.404
		c-1.043-0.348-2.176-0.609-3.309-0.871c-2.176,0-24.125-2.264-23.078-3.658c1.219-0.174,25.516-0.086,26.734-0.262
		c16.547,0,22.645-8.271,39.973-16.109c2.699-0.609,4.266-0.785,6.531-2.352c0-0.521,0-1.045,0-1.568
		c0.871-5.398,5.051-26.387,5.051-31.873c-0.262-0.176-0.434-0.348-0.695-0.523c-2.527,1.395-2.527,1.395-3.137,2.266
		c-7.836,23.426-26.473,35.617-47.723,45.371c-7.75,1.133-29.434,1.654-33.789,6.01c-3.047,0-10.277,2.787-6.879-2.439
		c14.629-30.217,35.707-40.059,50.77-66.186c0.176-0.436,0.438-0.869,0.609-1.219c0.176-1.48,0.438-2.787,0.609-4.18
		c1.828-4.182,8.102-7.838,11.582-10.711c1.047-0.785,2.004-1.482,3.051-2.178c-0.086-0.785-0.176-1.48-0.176-2.178
		c-1.305-0.871-1.828-1.133-2.262-2.525c0.086-0.436,0.172-0.871,0.348-1.219c3.395-1.916,8.27-4.703,12.016-6.096
		c0-0.523,0-1.045,0-1.568c-1.566-0.436-3.047-0.957-4.527-1.566c0-0.959,0.523-1.568,0.523-2.352
		c4.961-3.57,10.016-7.84,15.938-9.492c0-0.697,0-1.395,0-2.092c-4.355-0.609-6.883,2.525-12.02,2.004c0-0.695,0-1.393,0-2.09
		c3.309-1.916,11.41-8.709,14.891-8.709c0-0.957,0-2.004,0-2.961c-4.09,0-16.023,3.309-16.023-3.832
		c0.695-3.047,8.102-12.713,5.313-14.107c-5.574-9.666-12.629-18.027-16.719-28.564c2.09-2.611-0.352-5.922,2.699-9.58
		c5.66-3.135,3.309,5.398,8.707,4.268c-6.879-30.045,9.145-37.795,9.059-38.492c-4.789,1.393-7.664,1.393-10.887,1.656
		c-0.172,0-0.262,0-0.348,0c2.004-12.193,20.289-23.078,30.742-25.953c8.273-0.871,24.383-3.92,30.129,3.92
		c0,1.654-1.133,3.221-1.133,5.398c7.23,0,16.895-6.357,24.734-8.971c4.527-1.914,8.098-1.74,12.277-0.348
		c1.656,1.48,4.617,3.57,2.703,3.57c-12.543-3.918-30.48,6.096-40.672,11.67c-1.48,0.088-2.871,0.262-4.352,0.697
		c-0.086,1.393-0.086,1.393,0.605,2.699c5.75,1.307,7.84,2.875,15.418,2.264c1.48,2.002,2.961,3.92,4.441,5.922
		c0.957,2.264,2.699,3.049,5.137,3.049c0.609-3.396-0.781-3.396-2.176-6.01c2.262-3.57-1.395-6.445,4.18-9.23
		c2.961-0.697,2.785,1.48,4.441,0.871c-6.621,8.447-2.875,14.369,17.938,17.068l0,0c1.395-0.695,5.488,0.436,4.965-4.527
		c-2.785,0-3.656-2.963-4.004-5.313c1.566,0.609,2.871,0.871,4.441,1.305c1.652,6.793,46.066,12.977,52.859,21.424
		c2.699,3.484-0.348,5.662-6.879,8.535c0,2.959,3.918,9.58,6.27,11.061c1.48-0.959,1.566-2.875,2.09-4.443
		c2.613-1.219,2.438-0.174,2.961,1.83c-0.262,3.049-0.262,6.096,0.262,9.23c-0.523,0.609-0.957,1.133-1.395,1.742
		c-1.48,0.436-3.656,0.348-5.137,0.348c-6.969-1.48-14.285-2.002-22.035-2.699c-19.594-8.883-42.668-26.387-62.09-33.441
		c-3.223-2.002-2.613-2.438-6.707-1.916c0.176,3.223,2.18,3.484,4.617,4.877c5.746,6.357,10.887,9.928,8.359,18.811l0,0
		c-0.176,0.871-0.348,1.83-0.348,2.699c-7.664,0.785-1.742-13.148-8.621-14.369c-15.938,12.977,8.969,43.109,24.121,33.791
		c-7.664-3.049-8.445-6.967-8.445-7.926c17.59,8.709,54.254,16.633,57.824,18.113c-0.262,2.701-6.098,2.004-6.359,3.572
		c-9.055,2.525-22.641-2.963-30.477-6.881c-8.363-0.609-18.379,12.715-37.883,7.141c-3.484-1.307-21.773-14.107-24.906-13.324
		c-1.219,5.924,14.02,19.943,18.023,21.945c0.176,1.307,0.438,2.613,0.609,3.92c-3.047,2.787-9.141,7.576-8.793,12.365
		c4.266-0.174,6.008-1.654,10.012-1.654c0.09,2.09,0.176,4.182,0.266,6.271c0,6.965-8.188,2.961-11.324,1.479
		c-2.699-1.131-4.875-4.615-7.488-3.568c0,0.607,0,1.219,0,1.828c0.172,0,12.277,13.15,12.539,13.41c0,1.568,0,3.223,0,4.789
		c-0.172,0.262-0.434,0.525-0.609,0.873c-4.18,0-6.355-2.613-10.188-2.787c-0.086,1.74-0.352,2.004,0.695,3.396
		c4.617,6.096,9.668,11.758,11.059,14.281c-0.957,2.525-1.566,1.828-4.18,1.828c-3.223-1.654-13.586-10.014-17.156-9.752
		c-0.348,4.615,10.539,16.023,12.715,18.984c0.523,4.006,0.699,5.66-4.266,5.66c-4.008-2.178-9.754-7.75-13.238-7.926
		c-0.086,0.438-0.086,0.873-0.172,1.395c4.699,5.486,14.891,13.498,13.148,21.51c-3.656,0-4.875-2.352-7.313-1.742
		c0,2.701,0,2.701,0.434,2.875c1.914,8.447,15.5,13.063,15.5,20.029c-4.355,0.609-8.445-2.699-13.148-2.699
		c0,1.307-0.523,2.352,0.957,2.352c5.141,5.139,12.277,11.234,15.152,17.939c-1.305,1.307-0.086,1.48-2.352,2.352
		c-4.438-1.395-9.141-4.008-13.934-3.744c-0.348,1.131,20.902,20.203,23.516,31.785c0.086,1.742-0.176,5.313-0.348,6.881
		c-5.574-0.871-10.801-8.709-12.719-13.586c-0.605-0.174-1.219-0.262-1.828-0.438c0.699,7.316,3.57,12.455,3.57,20.293
		c-4.961-1.045-4.875-6.27-8.969-7.141c-0.086,0.871-0.262,1.74-0.348,2.699c7.664,6.184,1.395,32.918,2.438,42.934
		C515.998,325.14,515.646,324.968,512.947,324.792L512.947,324.792z M553.529,42.023c4.789,0.873,19.684,6.533,14.633,7.926l0,0
		c-4.793,0-12.629-0.436-15.676-5.051L553.529,42.023L553.529,42.023z M491.439,34.796c-0.699,0-3.484,2.961-4.184,2.961
		c0-0.783,2.09-4.441,2.09-5.139c4.879-9.84,15.066-13.76,24.211-11.932c0,0.611-0.086,1.219-0.086,1.83
		c-13.5,4.092-10.711,20.727-11.234,20.986C497.794,41.416,496.923,34.187,491.439,34.796L491.439,34.796z M491.177,93.841
		c0-11.061-13.152-29,5.832-38.406c0.352,0-4.527,25.777,10.539,33.615c0,0.697,0,1.395,0,2.092c-2.004,0.346-4.879,0.26-7.488,0.26
		c-1.57-2.785-1.48-1.133-4.18-1.133c0,2.961,2.09,8.273,2.609,11.234C495.791,100.197,492.396,97.498,491.177,93.841
		L491.177,93.841z M515.298,48.207c0.609-3.047-3.484-5.398-0.695-6.705c4.004-0.35,6.445-2.699,6.445-6.27
		c2.957,0,8.445,2.611,10.102,4.877c-0.871,3.223-2.699,3.744-3.832,6.182c1.566,3.049,2.613,3.744,2.176,7.055
		c-0.871,0.174-1.742,0.348-2.527,0.523c-2.438-0.523-13.758-2.004-13.758,0.607c-3.047,0.438-5.141,0-8.359,0.262
		c-1.219-1.219,1.828-2.002,2.438-3.83C510.072,50.035,512.423,48.642,515.298,48.207L515.298,48.207z"/>
	<path fill-rule="evenodd" clip-rule="evenodd" fill="#ED1C24" d="M410.533,404.214c0.785-1.914,7.23-8.621,4.355-10.016
		c-3.57,1.832-5.66,4.441-7.926,7.664c-8.793,5.574-29.434,17.504-37.969,17.504c-13.586,9.145-29.695,16.113-40.494,18.289
		c-61.311,16.633-118.611,14.281-144.477,11.234c-22.816-2.699-25.951-0.438,35.01,9.84
		c-25.691,13.762-132.721-33.613-168.338-64.094c-2.699-0.609-7.664-7.754-7.576-10.102
		c53.469,30.738,168.336,58.957,228.078,33.441c25.689-7.055,51.293-23.254,67.752-44.5c12.889-16.984,19.768-35.012,26.213-55.215
		c1.047-0.434,2.004-0.871,3.047-1.219c3.832,15.852,7.578,30.133,19.684,44.152c0.262,1.309,0.523,2.352-0.609,3.309
		c-4.613,1.047-8.883-4.441-13.762-4.789c16.113,18.113,57.477,29.957,73.414,37.883c2.703,0,0,2.961-1.219,3.309
		c-78.551,37.883-135.68,70.801-224.941,61.223c-0.523-0.176-7.752-0.438-8.275-0.609c0-1.219,9.059-2.18,9.928-2.699
		C268.845,458.82,372.392,442.968,410.533,404.214L410.533,404.214z M230.527,440.531c17.939,1.133,36.141-2.699,54.604-6.184
		c10.449-2.004,36.141-19.941,46.852-19.941c1.568,0,1.568-1.57,0-1.57c-3.047,0-22.031,4.094-26.125,6.184
		c-30.916,15.504-51.816,16.113-53.818,16.895C244.199,438.789,242.63,437.48,230.527,440.531L230.527,440.531z"/>
	<path fill-rule="evenodd" clip-rule="evenodd" fill="#ED1C24" d="M571.732,546.863c-6.098-3.047-15.59-4.094-22.73-4.527
		c-3.047,1.129-5.836,2.262-9.492,1.043c-1.395-4.004,0.609-19.77-2.09-19.77c-1.742-4.004-8.969-17.938-14.023-17.938
		c-0.867-2.441-0.957-11.672-1.828-12.543c-3.484-7.227-11.668-18.547-13.148-25.688c-0.086-1.309-0.172-2.613-0.262-3.832
		c-1.566-22.469-28.043-47.113-28.043-64.621c1.047-1.652,13.586-4.527,16.371-4.961c2.094,0,2.875-1.742,4.793-1.742
		c0.086-0.695,0.086-1.309,0.172-2.004c-5.051-2.523-11.492-2.438-16.895-5.137c0-1.395,0-2.699,0-3.918
		c3.051-1.57,8.711-2.355,7.754-6.883c-3.66,0.438-7.055,0-10.715,0c-8.359-0.523-16.719-1.133-25.078-1.48
		c-1.395,0-2.789,0-4.184,0c-55.906,2.266-116.955-84.473-53.992-107.115c0.609,0.609,1.656,0.174,7.316,0.174
		c1.918,3.311-6.793,2.613-7.488,5.313c5.656,1.656,9.492,0.959,14.195,2.527c0,1.305,0,2.611,0,3.918
		c-1.484,0.957-1.832,0.871-3.57,0.871c44.238,7.488,79.684,56.43,87.086,56.43c0-4.699-9.93-8.531-8.625-14.367
		c0.785,0,1.57,0,2.352,0c16.637,14.891,41.191,39.277,48.16,55.039c1.48,8.793,8.098,53.559,8.621,76.547
		c0,18.027,1.914,32.57,9.23,49.293c0,0.086,0,0.172,0,0.262c4.965,16.023-4.613,9.055-13.148,22.117
		c5.574-0.172,8.098-4.441,13.758-4.441c0,0.609,1.918,3.66,1.918,4.355c-1.828,1.48-9.844,5.137-12.105,5.137
		c-0.176,1.48-0.434,1.918,0.434,3.137c4.008-0.176,7.926-0.785,12.105-0.785c0-2.004,6.445-5.836,8.363-7.141
		c1.48,0,3.133-0.434,4.176,0.609c0,14.281,13.152,12.105,23.602,17.504c0.523,2.789-0.086,3.656-2.438,5.137
		C585.318,548.082,578.611,547.472,571.732,546.863L571.732,546.863z M489.345,353.445c3.313,0,2.094,0.609,4.531,1.828
		c5.574,1.566,22.293,12.977,22.293,19.684c-1.828,0.086-3.57,0.172-5.313,0.344c-8.707-3.395-14.805-10.535-22.992-14.105
		c-2.871,2.875-32.395,3.742-33.699-4.703C466.791,356.492,476.806,353.964,489.345,353.445L489.345,353.445z M396.251,332.281
		c-1.566-10.273-1.129-2.609,1.742-2.961c4.266,4.879,32.918,24.91,31.613,29.523C413.669,359.453,401.478,348.48,396.251,332.281
		L396.251,332.281z M522.787,481.808c-4.266-5.836-7.75-12.367-10.188-19.16c0-5.051-2.875-17.59-2.266-22.727
		c0.957,0.172,4.27,8.793,5.227,9.055c4.527,11.324,4.527,11.324,7.836,17.332c3.57,0.434,3.832,0.695,6.969-0.871
		c1.395,1.566,0.523,3.223,0.172,5.051c-1.043,3.918-2,8.707-4.09,12.629C523.486,483.636,525.228,482.503,522.787,481.808
		L522.787,481.808z M540.119,488.339c3.395,0,6.355,10.449,7.664,14.371c0.695,0.871,0.695,1.219,1.828,1.219
		c0,1.133,0,2.352,0,3.48c-1.918,0-2.09,1.656-2.961,3.313c-0.871,0-1.656-0.09-2.527-0.09
		C541.076,502.187,538.115,498.093,540.119,488.339L540.119,488.339z"/>
	<path fill-rule="evenodd" clip-rule="evenodd" fill="#ED1C24" d="M603.603,525.613c-2.262,1.656-2.871,2.523-5.832,2.266
		c0-1.133,0-2.18,0-3.313C600.466,524.566,602.037,523.609,603.603,525.613L603.603,525.613z"/>
</g>
</svg>
