<?xml version="1.0" encoding="UTF-8"?>
<svg width="264.58mm" height="88.033mm" version="1.1" viewBox="0 0 264.58 88.033" xmlns="http://www.w3.org/2000/svg">
 <g transform="translate(715.19 209.24)">
  <path d="m-713.89-207.94h261.98v85.432h-261.98z" opacity="0" stroke-width="2.6019"/>
  <path d="m-705.78-199.32v23.5h10.472v-4.6617h15.926v38.962h-5.2131v13.967h33.091v-13.967h-8.6247v-38.962h15.926v4.6617h10.472v-23.5z" color="#000000" color-rendering="auto" dominant-baseline="auto" fill="#010188" image-rendering="auto" shape-rendering="auto" solid-color="#000000" style="font-feature-settings:normal;font-variant-alternates:normal;font-variant-caps:normal;font-variant-ligatures:normal;font-variant-numeric:normal;font-variant-position:normal;isolation:auto;mix-blend-mode:normal;shape-padding:0;text-decoration-color:#000000;text-decoration-line:none;text-decoration-style:solid;text-indent:0;text-orientation:mixed;text-transform:none;white-space:normal"/>
  <path d="m-703.61-197.15h67.714v14.502h-67.714z" fill="#3399c0"/>
  <path d="m-703.61-197.15h6.1357v19.164h-6.1357z" fill-opacity="0"/>
  <path d="m-642.03-197.15h6.1357v19.164h-6.1357z" fill-opacity="0"/>
  <g fill="#3399c0">
   <path d="m-677.21-197.15h14.917v67.432h-14.917z"/>
   <path d="m-682.43-139.35h28.754v9.6306h-28.754z"/>
   <path d="m-702.45-184.12v5.3278h4.4079v-5.0212z"/>
  </g>
  <g>
   <path d="m-703.61-197.15h2.1787v19.164h-2.1787z" fill="#97fdfe"/>
   <path d="m-703.61-197.15h67.714v1.9262h-67.714z" fill="#97fdfe"/>
   <path d="m-641.2-184.12v5.3278h4.4079v-5.0212z" fill="#3399c0"/>
  </g>
  <g fill="#2b668d">
   <g>
    <path d="m-698.84-184.58v5.258h-4.7701v1.3298h6.1354v-4.6617h20.263v-1.926zm34.367 0v1.926h22.441v4.6617h6.1354v-1.3298h-4.7701v-5.258z"/>
    <path d="m-638.08-197.15h2.1787v19.164h-2.1787z"/>
    <path d="m-664.47-182.65v43.299h2.1784v-43.299z"/>
    <path d="m-682.43-131.9v2.1784h28.755v-2.1784z"/>
    <path d="m-655.85-139.35v9.6309h2.1784v-9.6309z"/>
   </g>
   <path d="m-674.51-156.86s-2.9807 10.083-0.22103 11.692c5.2446 2.4333 15.346 9.159 19.294 14.21l1.7617-0.48703v-7.9082h-8.6247v-1.5449l-1.0181-0.17108-0.0762-1.8405-0.0771-5.9788-0.61318-2.2233z"/>
  </g>
  <g>
   <path d="m-677.21-182.65v52.93h2.1784v-52.93z" fill="#97fdfe"/>
   <path d="m-704.02-171.66v42.623h33.346v-14.02l-11.988-4.2188s-1.4094-3.9028-1.4094-5.7458c0-1.843 0.10834-10.733 0.10834-10.733l9.4513-7.9056z" fill="#c5c5c5" stroke="#666" stroke-linecap="square" stroke-width="1.7346"/>
   <path d="m-700.76-173.14v39.654h31.38v-9.1236l-13.284-4.6744s-1.4094-3.9028-1.4094-5.7458c0-1.843 0.10834-10.733 0.10834-10.733l5.7686-1.7884z" fill="#fff" stroke="#666" stroke-linecap="square" stroke-width="1.7346"/>
   <path d="m-699.89-169.15-8.2e-4 25.086c1.5874 3.6786 3.7933 5.9212 6.6758 7.5855h22.971v-5.2174c-0.10211-0.13457-0.20269-0.26893-0.30066-0.40233l-12.792-4.5008-0.14063-0.38706s-0.36097-0.99885-0.72163-2.2335c-0.36067-1.2346-0.73943-2.6646-0.73943-3.8071 0-1.877 0.10834-10.743 0.10834-10.743l8e-3 -0.63099 3.8079-1.1807-10.612-3.5691z" fill="#c5c5c5"/>
   <path d="m-700.76-173.14h28.007c0 17.848-1.1641 22.049 9.4586 32.672h-27.623c-6.7923-3.9215-9.842-11.024-9.842-32.672z" fill="#fff" stroke="#666" stroke-linecap="square" stroke-width="1.7346"/>
  </g>
  <g fill="#666">
   <path d="m-697-167.77h4.6343c0.43543 0 0.786 0.35055 0.786 0.786 0 0.43543-0.35057 0.78598-0.786 0.78598h-4.6343c-0.43544 0-0.78599-0.35055-0.78599-0.78598 0-0.43545 0.35055-0.786 0.78599-0.786z"/>
   <path d="m-696.65-163.27h5.8535c0.43543 0 0.78599 0.35055 0.78599 0.78599 0 0.43543-0.35056 0.78598-0.78599 0.78598h-5.8535c-0.43545 0-0.786-0.35055-0.786-0.78598 0-0.43544 0.35055-0.78599 0.786-0.78599z"/>
   <path d="m-695.47-158.9h6.2058c0.43543 0 0.78599 0.35055 0.78599 0.78599 0 0.43543-0.35056 0.78598-0.78599 0.78598h-6.2058c-0.43545 0-0.78599-0.35055-0.78599-0.78598 0-0.43544 0.35054-0.78599 0.78599-0.78599z"/>
   <path d="m-693.78-154.34h8.6206c0.43543 0 0.78599 0.35054 0.78599 0.78599 0 0.43543-0.35056 0.78598-0.78599 0.78598h-8.6206c-0.43544 0-0.78599-0.35055-0.78599-0.78598 0-0.43545 0.35055-0.78599 0.78599-0.78599z"/>
  </g>
  <g>
   <g>
    <path d="m-681.33-159-5.0457-5.9795 7.7007 1.3818 28.348 16.366-2.6537 4.5969z" stroke="#9c3a00" stroke-linecap="round" stroke-linejoin="round" stroke-width="4.5325"/>
    <path d="m-681.33-159-5.0457-5.9795 7.7007 1.3818 28.348 16.366-2.6537 4.5969z" fill="#ff0"/>
    <path d="m-686.38-164.98 5.0473 5.9799 2.655-4.5977z" fill="#fff"/>
    <path d="m-656.85-144.86 3.8622 2.2298 2.655-4.5977-3.8622-2.2298z" fill="#c66"/>
    <path d="m-682.34-166.56-8.0176-1.4162-0.60178 1.0423 5.2349 6.2361z" color="#000000" color-rendering="auto" dominant-baseline="auto" image-rendering="auto" shape-rendering="auto" solid-color="#000000" style="font-feature-settings:normal;font-variant-alternates:normal;font-variant-caps:normal;font-variant-ligatures:normal;font-variant-numeric:normal;font-variant-position:normal;isolation:auto;mix-blend-mode:normal;shape-padding:0;text-decoration-color:#000000;text-decoration-line:none;text-decoration-style:solid;text-indent:0;text-orientation:mixed;text-transform:none;white-space:normal"/>
    <path d="m-679.39-160.02-0.92981 1.6105 22.672 13.089 0.92952-1.61z" fill="#fdca00"/>
    <path d="m-678.43-164.14-3.2485 5.6266 1.9487 1.1239 3.248-5.6257z" fill="#9c3a00"/>
    <path d="m-656.85-144.86 3.8622 2.2298 1.026-1.7762-3.8622-2.2298z" fill="#c34b4b"/>
    <path d="m-655.61-150.96-3.2485 5.6266 1.9487 1.1239 3.248-5.6257z" fill="#9c3a00"/>
   </g>
   <path d="m-558.29-161.09v32.273h6.5165v-12.175h4.2484c2.95 0 5.203-0.15307 6.7587-0.46143 1.1448-0.24965 2.2678-0.75565 3.3686-1.5188 1.1155-0.77786 2.032-1.8421 2.7511-3.1923 0.71916-1.3503 1.0789-3.0164 1.0789-4.9977 0-2.5684-0.62374-4.6599-1.8713-6.2744-1.2475-1.6291-2.796-2.6851-4.6453-3.1694-1.2035-0.32288-3.7861-0.48431-7.7488-0.48431zm6.5165 5.4591h3.148c2.3482 0 3.9104 0.0739 4.6883 0.22076 1.0567 0.19082 1.9308 0.6682 2.6206 1.4314 0.68981 0.7632 1.0345 1.7317 1.0345 2.9058 0 0.95397-0.24887 1.7898-0.74794 2.5089-0.48437 0.71918-1.1601 1.2472-2.026 1.5848-0.86592 0.33756-2.5827 0.50714-5.151 0.50714h-3.5664z" fill="#1b4a63" style="font-feature-settings:normal;font-variant-caps:normal;font-variant-ligatures:normal;font-variant-numeric:normal"/>
   <path d="m-560.7-162.55v32.273h6.5165v-12.175h4.2484c2.95 0 5.203-0.15309 6.7587-0.46143 1.1448-0.24965 2.2678-0.75564 3.3686-1.5188 1.1155-0.77785 2.032-1.8421 2.7511-3.1923 0.71916-1.3503 1.0789-3.0164 1.0789-4.9977 0-2.5684-0.62376-4.6599-1.8713-6.2744-1.2475-1.6291-2.796-2.6851-4.6453-3.1695-1.2035-0.32288-3.7861-0.4843-7.7488-0.4843zm6.5165 5.4591h3.148c2.3482 0 3.9104 0.0738 4.6883 0.22062 1.0567 0.19082 1.9308 0.6682 2.6206 1.4314 0.68982 0.7632 1.0345 1.7317 1.0345 2.9058 0 0.95396-0.24892 1.7898-0.74794 2.5089-0.48436 0.71916-1.1601 1.2472-2.026 1.5847-0.86593 0.33757-2.5827 0.50717-5.151 0.50717h-3.5664z" fill="#47a0cd" style="font-feature-settings:normal;font-variant-caps:normal;font-variant-ligatures:normal;font-variant-numeric:normal"/>
   <path d="m-484.58-161.09v11.623c-1.908-2.1721-4.1677-3.2583-6.7802-3.2583-2.8473 0-5.2041 1.0342-7.0681 3.1036-1.8639 2.0547-2.7955 5.0641-2.7955 9.0268 0 3.8746 0.95347 6.8977 2.8614 9.0698 1.9226 2.1574 4.2276 3.2368 6.9134 3.2368 1.321 0 2.6273-0.32281 3.9188-0.9686 1.3062-0.66045 2.4361-1.659 3.3901-2.9946v3.4345h5.747v-32.273zm-5.1524 13.099c1.5117 0 2.7524 0.59368 3.7211 1.7825 0.96865 1.1741 1.4529 3.1042 1.4529 5.7901 0 2.407-0.49931 4.2194-1.4973 5.4376-0.99804 1.2034-2.2087 1.8053-3.6322 1.8053-1.7906 0-3.1845-0.8071-4.1825-2.4215-0.68981-1.1154-1.0345-2.9211-1.0345-5.4161 0-2.3189 0.49111-4.0575 1.4745-5.217 0.99799-1.1741 2.2305-1.761 3.6982-1.761z" fill="#1b4a63" style="font-feature-settings:normal;font-variant-caps:normal;font-variant-ligatures:normal;font-variant-numeric:normal"/>
   <path d="m-486.99-162.55v11.623c-1.908-2.1721-4.1678-3.2583-6.7802-3.2583-2.8473 0-5.2041 1.0341-7.0681 3.1036-1.8639 2.0547-2.7955 5.0641-2.7955 9.0268 0 3.8746 0.95348 6.8977 2.8614 9.0699 1.9226 2.1574 4.2275 3.2367 6.9134 3.2367 1.3209 0 2.6273-0.32281 3.9188-0.9686 1.3062-0.66045 2.4361-1.659 3.3901-2.9946v3.4345h5.747v-32.273zm-5.1524 13.099c1.5117 0 2.7524 0.59369 3.7211 1.7825 0.96863 1.1741 1.4528 3.1042 1.4528 5.7901 0 2.407-0.4993 4.2194-1.4973 5.4376-0.99804 1.2035-2.2086 1.8054-3.6322 1.8054-1.7906 0-3.1845-0.80711-4.1825-2.4215-0.68981-1.1154-1.0346-2.9211-1.0346-5.4161 0-2.3189 0.49111-4.0575 1.4745-5.217 0.99798-1.1741 2.2305-1.761 3.6981-1.761z" fill="#47a0cd" style="font-feature-settings:normal;font-variant-caps:normal;font-variant-ligatures:normal;font-variant-numeric:normal"/>
   <path d="m-571.86-160.45-6.2083 3.6106v4.6448h-2.8399v4.9311h2.8399v10.193c0 2.1868 0.0661 3.6402 0.19811 4.3593 0.1614 1.0127 0.44786 1.8198 0.85884 2.4215 0.42558 0.58706 1.0858 1.071 1.981 1.4526 0.89526 0.3669 1.9006 0.55056 3.0161 0.55056 1.8199 0 3.4487-0.30851 4.887-0.92489l-0.52766-4.7989c-1.0861 0.39627-1.916 0.59453-2.4884 0.59453-0.41093 0-0.76263-0.10283-1.0562-0.30828-0.27883-0.20539-0.46244-0.46252-0.55051-0.77072-0.0734-0.32288-0.11012-1.4385-0.11012-3.3464v-9.4226h4.2264v-4.9311h-4.2264z" fill="#1b4a63" style="font-feature-settings:normal;font-variant-caps:normal;font-variant-ligatures:normal;font-variant-numeric:normal"/>
   <path d="m-574.27-161.92-6.2083 3.6106v4.6448h-2.8399v4.9311h2.8399v10.193c0 2.1868 0.0661 3.6402 0.19811 4.3593 0.1614 1.0127 0.44786 1.8198 0.85884 2.4215 0.42558 0.58706 1.0858 1.071 1.981 1.4525 0.89526 0.36691 1.9006 0.55057 3.0161 0.55057 1.8199 0 3.4487-0.30851 4.887-0.92489l-0.52766-4.7989c-1.0861 0.39627-1.916 0.59453-2.4884 0.59453-0.41093 0-0.76263-0.10283-1.0562-0.30828-0.27883-0.2054-0.46244-0.46252-0.55051-0.77072-0.0734-0.32289-0.11012-1.4385-0.11012-3.3464v-9.4226h4.2264v-4.9311h-4.2264z" fill="#47a0cd" style="font-feature-settings:normal;font-variant-caps:normal;font-variant-ligatures:normal;font-variant-numeric:normal"/>
   <path d="m-629.4-152.72c-3.0968 0-5.6575 1.1012-7.6829 3.3027-2.0254 2.1868-3.0377 5.2167-3.0377 9.0914 0 3.2435 0.7702 5.9301 2.3112 8.0582 1.952 2.6565 4.9601 3.9847 9.0254 3.9847 2.5684 0 4.7038-0.58683 6.4062-1.761 1.7171-1.1888 2.9728-2.9137 3.7654-5.1739l-6.164-1.0345c-0.33757 1.1742-0.83688 2.025-1.4974 2.5533-0.6604 0.52838-1.4756 0.79374-2.4443 0.79374-1.4236 0-2.6123-0.50749-3.5663-1.5202-0.95404-1.0274-1.452-2.4582-1.496-4.2928h15.499c0.088-4.7406-0.87364-8.2561-2.8844-10.546-2.0107-2.3042-4.756-3.456-8.2344-3.456zm0.37393 4.734c1.2622 0 2.3333 0.46919 3.2139 1.4085 0.88055 0.9246 1.3443 2.2829 1.3883 4.0735h-9.2461c-0.0156-1.6878 0.41756-3.0242 1.2982-4.0076 0.88058-0.98333 1.9955-1.4744 3.3457-1.4744z" fill="#1b4a63" style="font-feature-settings:normal;font-variant-caps:normal;font-variant-ligatures:normal;font-variant-numeric:normal"/>
   <path d="m-631.81-154.19c-3.0968 0-5.6575 1.1012-7.6829 3.3027-2.0254 2.1868-3.0377 5.2168-3.0377 9.0914 0 3.2435 0.77019 5.9301 2.3112 8.0582 1.952 2.6565 4.96 3.9847 9.0254 3.9847 2.5684 0 4.7038-0.58682 6.4062-1.761 1.7171-1.1888 2.9728-2.9137 3.7654-5.1739l-6.164-1.0345c-0.33757 1.1742-0.83687 2.025-1.4973 2.5533-0.6604 0.52836-1.4756 0.79371-2.4444 0.79371-1.4236 0-2.6123-0.50746-3.5663-1.5202-0.95403-1.0274-1.452-2.4582-1.496-4.2928h15.499c0.0879-4.7406-0.87365-8.256-2.8844-10.546-2.0107-2.3042-4.756-3.456-8.2344-3.456zm0.37394 4.734c1.2622 0 2.3333 0.4692 3.2139 1.4085 0.88054 0.9246 1.3443 2.2829 1.3883 4.0735h-9.2461c-0.0159-1.6878 0.41753-3.0242 1.2981-4.0076 0.88061-0.98333 1.9955-1.4744 3.3457-1.4744z" fill="#47a0cd" style="font-feature-settings:normal;font-variant-caps:normal;font-variant-ligatures:normal;font-variant-numeric:normal"/>
   <path d="m-518.7-152.72c-3.0381 0-5.3278 0.54305-6.8689 1.6291-1.541 1.0861-2.6272 2.759-3.2583 5.0192l5.6138 1.013c0.38159-1.086 0.88087-1.8425 1.4973-2.2682 0.61646-0.44031 1.4741-0.65917 2.5749-0.65917 1.6291 0 2.7371 0.25564 3.3242 0.7695 0.58707 0.49902 0.88116 1.3443 0.88116 2.5331v0.61479c-1.1155 0.46968-3.1181 0.97713-6.0093 1.5202-2.1428 0.41093-3.787 0.89519-4.9318 1.4529-1.1301 0.54304-2.0096 1.3351-2.6408 2.3771-0.63106 1.0274-0.94707 2.201-0.94707 3.5219 0 1.996 0.68945 3.6484 2.069 4.9547 1.3943 1.3062 3.2944 1.9587 5.7013 1.9587 1.3649 0 2.6493-0.25694 3.8528-0.77085 1.2035-0.51366 2.3335-1.2838 3.3901-2.3112 0.044 0.11741 0.11793 0.35954 0.2205 0.72645 0.23482 0.80724 0.43311 1.416 0.59461 1.8269h6.1197c-0.54309-1.1154-0.91656-2.1577-1.122-3.1264-0.19082-0.98331-0.28654-2.5017-0.28654-4.5564l0.0661-7.2214c0-2.6858-0.27902-4.527-0.83674-5.525-0.54309-1.0127-1.4897-1.8417-2.8399-2.4874-1.3502-0.66045-3.4048-0.99149-6.164-0.99149zm3.7641 12.681v1.2336c0 1.4824-0.0804 2.4877-0.24211 3.0161-0.23481 0.80725-0.72592 1.4898-1.4744 2.0475-1.0127 0.73381-2.077 1.1004-3.1924 1.1004-0.99804 0-1.8201-0.31598-2.4659-0.94706-0.64572-0.63109-0.96855-1.3794-0.96855-2.2453 0-0.88061 0.40356-1.607 1.2107-2.1794 0.52836-0.35227 1.6514-0.71199 3.3686-1.0789 1.7172-0.36691 2.9716-0.68292 3.7641-0.9471z" fill="#1b4a63" style="font-feature-settings:normal;font-variant-caps:normal;font-variant-ligatures:normal;font-variant-numeric:normal"/>
   <path d="m-521.11-154.19c-3.0381 0-5.3279 0.54305-6.8689 1.6291-1.541 1.0861-2.6272 2.759-3.2583 5.0192l5.6138 1.013c0.38158-1.0861 0.88088-1.8425 1.4973-2.2681 0.61646-0.44032 1.4741-0.65919 2.5749-0.65919 1.6291 0 2.7371 0.25577 3.3242 0.7695 0.58705 0.49902 0.88116 1.3444 0.88116 2.5332v0.61478c-1.1155 0.46966-3.1181 0.97713-6.0093 1.5202-2.1428 0.41092-3.787 0.8952-4.9318 1.4529-1.1301 0.54304-2.0096 1.335-2.6408 2.3771-0.63106 1.0274-0.94707 2.201-0.94707 3.5219 0 1.996 0.68947 3.6484 2.069 4.9547 1.3943 1.3062 3.2944 1.9587 5.7013 1.9587 1.3649 0 2.6493-0.25701 3.8528-0.77084 1.2035-0.51366 2.3334-1.2838 3.3901-2.3112 0.0441 0.11741 0.11779 0.35955 0.22062 0.72645 0.23481 0.80725 0.43311 1.416 0.59463 1.8269h6.1197c-0.5431-1.1154-0.91656-2.1578-1.122-3.1264-0.19079-0.9833-0.28654-2.5017-0.28654-4.5564l0.0661-7.2214c0-2.6858-0.27903-4.527-0.83673-5.525-0.54311-1.0127-1.4897-1.8416-2.8399-2.4874-1.3502-0.66044-3.4048-0.99147-6.164-0.99147zm3.7641 12.681v1.2336c0 1.4824-0.0805 2.4878-0.24217 3.0161-0.23481 0.80725-0.72591 1.4898-1.4744 2.0475-1.0127 0.73381-2.077 1.1004-3.1924 1.1004-0.99805 0-1.8201-0.316-2.4659-0.94708-0.64573-0.63108-0.96857-1.3793-0.96857-2.2453 0-0.88061 0.40356-1.6069 1.2107-2.1793 0.52837-0.35228 1.6514-0.71201 3.3686-1.0789 1.7172-0.3669 2.9715-0.68289 3.7641-0.94707z" fill="#47a0cd" style="font-feature-settings:normal;font-variant-caps:normal;font-variant-ligatures:normal;font-variant-numeric:normal"/>
   <path d="m-612.64-152.2 8.0801 11.338-8.4325 12.042h7.2433l4.799-7.2424 4.7557 7.2424h7.5948l-8.6518-12.306 7.9251-11.073h-7.2644l-4.3593 6.4285-4.1383-6.4285z" fill="#1b4a63" style="font-feature-settings:normal;font-variant-caps:normal;font-variant-ligatures:normal;font-variant-numeric:normal"/>
   <path d="m-615.05-153.66 8.0801 11.338-8.4325 12.042h7.2433l4.799-7.2424 4.7557 7.2424h7.5948l-8.6518-12.306 7.9251-11.073h-7.2644l-4.3593 6.4285-4.1383-6.4285z" fill="#47a0cd" style="font-feature-settings:normal;font-variant-caps:normal;font-variant-ligatures:normal;font-variant-numeric:normal"/>
  </g>
  <g fill="#369">
   <path d="m-599.04-184.4 0.17121-0.90743h1.6351l2.1145-10.855h-3.7581l-0.38523 1.9946h-1.053l0.58213-3.0134h11.351l-0.58213 3.0134h-1.053l0.38523-1.9946h-3.7581l-2.1145 10.855h1.6351l-0.17121 0.90743z" style="font-feature-settings:normal;font-variant-caps:normal;font-variant-ligatures:normal;font-variant-numeric:normal"/>
   <path d="m-586.07-187.89q-0.0342 0.3253-0.0342 0.61636 0 0.8047 0.29106 1.3355 0.50508 0.94167 1.8577 0.94167 0.99304 0 1.481-0.29962 0.87319-0.53932 1.0786-1.2327h1.1557q-0.34242 1.0872-1.618 1.8491-0.89031 0.53076-2.6538 0.53076t-2.7137-1.3098q-0.66773-0.91599-0.66773-2.2429 0-0.58212 0.12841-1.2413 0.41947-2.1658 1.8662-3.4842t3.5013-1.3183q3.3472 0 3.3472 2.3713 0 1.7378-1.7549 2.5853-1.7892 0.86462-5.2648 0.89887zm4.3916-1.9176q0.9588-0.565 0.9588-1.6265 0-1.4639-1.9433-1.4639-1.1471 0-1.9433 0.87319-0.79614 0.87318-1.2841 3.2274 2.748-0.12841 4.2118-1.0102z" style="font-feature-settings:normal;font-variant-caps:normal;font-variant-ligatures:normal;font-variant-numeric:normal"/>
   <path d="m-574.98-184.4h-1.0701l4.0149-4.3659-2.0203-3.818h-1.1214l0.17121-0.91599h2.3114l1.8919 3.5441 3.2616-3.5441h1.0701l-3.9379 4.2803 2.0802 3.9122h1.1899l-0.17121 0.90743h-2.3884l-1.9347-3.6297z" style="font-feature-settings:normal;font-variant-caps:normal;font-variant-ligatures:normal;font-variant-numeric:normal"/>
   <path d="m-561.69-192.58h-1.3868l0.17978-0.91599h1.3868l0.54788-2.825h1.5837l-0.54788 2.825h2.962l-0.17977 0.91599h-2.962l-1.1214 5.7784q-0.12841 0.67629-0.12841 1.0701 0 0.27394 0.0599 0.41091 0.16265 0.3253 0.76189 0.3253 0.61637 0 0.96735-0.35954 0.35955-0.36811 0.53076-1.1814h1.1899q-0.30818 1.2413-1.0273 1.8148-0.7191 0.57357-1.9604 0.57357-1.3611 0-1.8149-0.60781-0.27394-0.36811-0.27394-1.053 0-0.43659 0.11129-0.99303z" style="font-feature-settings:normal;font-variant-caps:normal;font-variant-ligatures:normal;font-variant-numeric:normal"/>
   <path d="m-547.34-184.4 0.17121-0.90743h1.6265l2.1316-10.958h-1.6265l0.17978-0.91599h10.29l-0.54788 2.8421h-1.053l0.34242-1.7892h-5.8726l-0.83038 4.2803h4.1862l0.30818-1.6008h1.053l-0.82182 4.2461h-1.053l0.30818-1.6008h-4.1862l-1.0358 5.3504h6.0096l0.34242-1.7892h1.053l-0.54788 2.8421z" style="font-feature-settings:normal;font-variant-caps:normal;font-variant-ligatures:normal;font-variant-numeric:normal"/>
   <path d="m-521.59-197.72-2.5853 13.32h-1.5752l0.27395-1.4211q-0.63349 0.85607-1.4296 1.267-0.78758 0.40235-1.8405 0.40235-1.6779 0-2.4826-1.3269-0.53932-0.88175-0.53932-2.1145 0-0.63349 0.14554-1.3611 0.41947-2.1402 1.7378-3.4671 1.3183-1.3269 3.0048-1.3269 1.053 0 1.6864 0.41091 0.63348 0.40235 0.93311 1.2584l0.91598-4.734h-1.4896l0.17978-0.90743zm-3.3643 9.2198 0.17122-0.89887q0.12841-0.66773 0.12841-1.207 0-0.77901-0.27394-1.2926-0.45372-0.86463-1.6522-0.86463-1.2156 0-2.0289 0.95879-0.8047 0.9588-1.1728 2.8507-0.17121 0.86462-0.17121 1.5324 0 0.79614 0.2397 1.3183 0.42803 0.96735 1.6436 0.96735 1.1985 0 1.9946-0.85606 0.79614-0.86462 1.1214-2.5083z" style="font-feature-settings:normal;font-variant-caps:normal;font-variant-ligatures:normal;font-variant-numeric:normal"/>
   <path d="m-515.95-196.32q0.077-0.39379 0.41947-0.68485 0.34242-0.29107 0.74477-0.29107 0.39379 0 0.62493 0.29107 0.17977 0.22257 0.17977 0.49651 0 0.0942-0.0257 0.18834-0.077 0.40235-0.41947 0.68485-0.33387 0.2825-0.73622 0.2825t-0.63348-0.2825q-0.17122-0.21402-0.17122-0.48796 0-0.0942 0.0171-0.19689zm-0.12841 11.018h1.4896l-0.17122 0.90743h-3.0647l1.5837-8.184h-1.5067l0.17977-0.91599h3.0818z" style="font-feature-settings:normal;font-variant-caps:normal;font-variant-ligatures:normal;font-variant-numeric:normal"/>
   <path d="m-508.59-192.58h-1.3868l0.17978-0.91599h1.3868l0.54788-2.825h1.5837l-0.54788 2.825h2.962l-0.17977 0.91599h-2.962l-1.1214 5.7784q-0.12841 0.67629-0.12841 1.0701 0 0.27394 0.0599 0.41091 0.16265 0.3253 0.76189 0.3253 0.61637 0 0.96736-0.35954 0.35954-0.36811 0.53076-1.1814h1.1899q-0.30819 1.2413-1.0273 1.8148-0.7191 0.57357-1.9604 0.57357-1.3611 0-1.8148-0.60781-0.27394-0.36811-0.27394-1.053 0-0.43659 0.11128-0.99303z" style="font-feature-settings:normal;font-variant-caps:normal;font-variant-ligatures:normal;font-variant-numeric:normal"/>
   <path d="m-497.21-185q1.267 0 2.1059-1.0016 0.8475-1.0016 1.2242-2.9534 0.17121-0.89031 0.17121-1.5837 0-0.82182-0.23969-1.3611-0.45372-1.0016-1.7207-1.0016-1.267 0-2.1145 1.0016-0.83894 0.99303-1.2156 2.9449-0.17122 0.8903-0.17122 1.5752 0 0.83038 0.24826 1.3783 0.45372 1.0016 1.7121 1.0016zm-0.16265 0.84751q-1.9861 0-2.9363-1.3098-0.65917-0.91599-0.65917-2.2343 0-0.59068 0.12841-1.2584 0.41947-2.1744 1.8748-3.4842 1.4639-1.3098 3.4585-1.3098t2.9449 1.3098q0.65061 0.90743 0.65061 2.2258 0 0.59069-0.12841 1.2584-0.41947 2.1744-1.8833 3.4927-1.4553 1.3098-3.4499 1.3098z" style="font-feature-settings:normal;font-variant-caps:normal;font-variant-ligatures:normal;font-variant-numeric:normal"/>
   <path d="m-479.76-193.51-0.44515 2.2771h-0.90743q0.0257-0.17122 0.0257-0.31675 0-0.44515-0.20545-0.69341-0.26538-0.33386-0.90743-0.33386-1.1642 0-1.9433 0.8047-0.77902 0.8047-1.0701 2.3114l-0.98448 5.0679h-1.5752l1.5923-8.2011h-1.5067l0.17121-0.89887h3.0818l-0.30818 1.618q0.64205-0.95023 1.4553-1.404 0.82182-0.46227 1.8662-0.46227 0.38523 0 0.79614 0.0599t0.86462 0.17122z" style="font-feature-settings:normal;font-variant-caps:normal;font-variant-ligatures:normal;font-variant-numeric:normal"/>
   <path d="m-602.82-178.04h-0.83039q0.0343-0.17977 0.0343-0.34242 0-0.39379-0.20546-0.63349-0.29106-0.33386-0.96735-0.33386-0.88175 0-1.3355 0.48795-0.45371 0.4794-0.69341 1.7207l-0.23114 1.1728h2.5425l-0.17977 0.91599h-2.5425l-1.695 8.749q-0.29962 1.5238-1.2413 2.3028-0.94167 0.77901-2.474 0.77901l0.10273-0.83894q0.89887 0 1.3355-0.47939 0.45371-0.51364 0.70197-1.7635l1.695-8.749h-1.5067l0.17977-0.91599h1.5067l0.22258-1.1386q0.29962-1.5324 1.2413-2.3028 0.94167-0.77902 2.474-0.77902 0.57356 0 1.1214 0.10273 0.55644 0.10273 1.0872 0.31675z" style="font-feature-settings:normal;font-variant-caps:normal;font-variant-ligatures:normal;font-variant-numeric:normal"/>
   <path d="m-598.39-167.46q1.267 0 2.1059-1.0016 0.84751-1.0016 1.2242-2.9534 0.17122-0.89031 0.17122-1.5837 0-0.82182-0.2397-1.3611-0.45371-1.0016-1.7207-1.0016-1.267 0-2.1145 1.0016-0.83894 0.99303-1.2156 2.9449-0.17121 0.89031-0.17121 1.5752 0 0.83038 0.24826 1.3783 0.45371 1.0016 1.7121 1.0016zm-0.16266 0.8475q-1.9861 0-2.9363-1.3098-0.65917-0.91599-0.65917-2.2343 0-0.59068 0.12841-1.2584 0.41948-2.1744 1.8748-3.4842 1.4639-1.3098 3.4585-1.3098t2.9449 1.3098q0.65061 0.90743 0.65061 2.2258 0 0.59068-0.12841 1.2584-0.41947 2.1744-1.8833 3.4927-1.4553 1.3098-3.4499 1.3098z" style="font-feature-settings:normal;font-variant-caps:normal;font-variant-ligatures:normal;font-variant-numeric:normal"/>
   <path d="m-580.93-175.98-0.44516 2.2771h-0.90742q0.0257-0.17121 0.0257-0.31674 0-0.44516-0.20546-0.69342-0.26538-0.33386-0.90743-0.33386-1.1642 0-1.9433 0.8047t-1.0701 2.3114l-0.98447 5.0679h-1.5752l1.5923-8.2011h-1.5067l0.17122-0.89887h3.0818l-0.30819 1.618q0.64205-0.95023 1.4553-1.4039 0.82183-0.46228 1.8662-0.46228 0.38523 0 0.79614 0.0599t0.86463 0.17121z" style="font-feature-settings:normal;font-variant-caps:normal;font-variant-ligatures:normal;font-variant-numeric:normal"/>
   <path d="m-559.76-166.86h-1.404l-0.90743-10.393-4.948 10.393h-1.4039l-1.0444-11.865h-1.267l0.17977-0.91599h4.6656l-0.17978 0.91599h-1.5923l0.83038 9.4424 4.9224-10.358h1.3868l0.92455 10.47 4.5371-9.5537h-1.4724l0.17977-0.91599h3.6811l-0.17978 0.91599h-1.2584z" style="font-feature-settings:normal;font-variant-caps:normal;font-variant-ligatures:normal;font-variant-numeric:normal"/>
   <path d="m-549.25-178.79q0.077-0.39379 0.41947-0.68485 0.34243-0.29106 0.74478-0.29106 0.39379 0 0.62492 0.29106 0.17978 0.22257 0.17978 0.49651 0 0.0942-0.0257 0.18834-0.077 0.40235-0.41948 0.68485-0.33386 0.2825-0.73621 0.2825t-0.63349-0.2825q-0.17121-0.21402-0.17121-0.48796 0-0.0942 0.0171-0.19689zm-0.12841 11.018h1.4896l-0.17121 0.90743h-3.0647l1.5837-8.184h-1.5067l0.17977-0.91599h3.0818z" style="font-feature-settings:normal;font-variant-caps:normal;font-variant-ligatures:normal;font-variant-numeric:normal"/>
   <path d="m-543-166.86 1.5923-8.184h-1.5067l0.17121-0.91599h3.0818l-0.30819 1.618q0.61637-0.92455 1.404-1.3954 0.78758-0.47084 1.7121-0.47084 1.5067 0 2.0546 0.86463 0.3253 0.5222 0.3253 1.3954 0 0.57356-0.14553 1.3012l-0.95023 4.8796h1.404l-0.17122 0.90743h-2.9877l1.0273-5.2905q0.17121-0.88175 0.17121-1.4724 0-0.52219-0.13697-0.82182-0.29106-0.61636-1.3269-0.61636-1.0958 0-1.8234 0.8047-0.72765 0.79614-1.0273 2.3285l-0.98448 5.0679z" style="font-feature-settings:normal;font-variant-caps:normal;font-variant-ligatures:normal;font-variant-numeric:normal"/>
   <path d="m-520.25-180.19-2.5853 13.32h-1.5752l0.27394-1.4211q-0.63349 0.85607-1.4296 1.267-0.78758 0.40235-1.8405 0.40235-1.6779 0-2.4826-1.3269-0.53932-0.88175-0.53932-2.1145 0-0.63349 0.14553-1.3611 0.41947-2.1402 1.7378-3.4671t3.0048-1.3269q1.053 0 1.6864 0.41091 0.63349 0.40235 0.93311 1.2584l0.91599-4.734h-1.4896l0.17977-0.90743zm-3.3643 9.2198 0.17121-0.89886q0.12841-0.66773 0.12841-1.207 0-0.77902-0.27394-1.2927-0.45371-0.86462-1.6522-0.86462-1.2156 0-2.0289 0.95879-0.8047 0.95879-1.1728 2.8507-0.17122 0.86462-0.17122 1.5324 0 0.79614 0.2397 1.3183 0.42803 0.96736 1.6436 0.96736 1.1985 0 1.9946-0.85607 0.79614-0.86462 1.1214-2.5083z" style="font-feature-settings:normal;font-variant-caps:normal;font-variant-ligatures:normal;font-variant-numeric:normal"/>
   <path d="m-512.87-167.46q1.267 0 2.1059-1.0016 0.8475-1.0016 1.2242-2.9534 0.17121-0.89031 0.17121-1.5837 0-0.82182-0.2397-1.3611-0.45371-1.0016-1.7207-1.0016-1.267 0-2.1145 1.0016-0.83895 0.99303-1.2156 2.9449-0.17121 0.89031-0.17121 1.5752 0 0.83038 0.24826 1.3783 0.45371 1.0016 1.7121 1.0016zm-0.16265 0.8475q-1.9861 0-2.9363-1.3098-0.65917-0.91599-0.65917-2.2343 0-0.59068 0.12841-1.2584 0.41947-2.1744 1.8748-3.4842 1.4639-1.3098 3.4585-1.3098t2.9449 1.3098q0.6506 0.90743 0.6506 2.2258 0 0.59068-0.1284 1.2584-0.41948 2.1744-1.8834 3.4927-1.4553 1.3098-3.4499 1.3098z" style="font-feature-settings:normal;font-variant-caps:normal;font-variant-ligatures:normal;font-variant-numeric:normal"/>
   <path d="m-494.42-168.86q1.1386-1.2327 1.3954-1.6864 0.94167-1.7121 1.8662-4.5029l-1.3269 9e-3 0.17977-0.92455h2.2857l-0.17977 0.92455h-9e-3q-0.87318 3.176-1.7036 4.7084-1.2242 2.183-2.5682 3.4671h-1.3098l-0.93311-6.8057-3.5698 6.8057h-1.2584l-1.1043-8.184-1.0273 0.0171 0.17978-0.93311h2.3456l0.95879 7.1053 3.7239-7.1053h1.1043z" style="font-feature-settings:normal;font-variant-caps:normal;font-variant-ligatures:normal;font-variant-numeric:normal"/>
   <path d="m-486.89-169.49h0.90743q-0.0342 0.24826-0.0342 0.47084 0 1.558 2.1145 1.558 2.123 0 2.4312-1.558 0.0257-0.15409 0.0257-0.42803 0-0.26538-0.29106-0.58213-0.29106-0.3253-1.5152-0.74477l-1.0701-0.38523q-1.0958-0.37667-1.4553-0.85606-0.35098-0.48796-0.35098-1.0444 0-0.22258 0.0428-0.4794 0.24826-1.2498 1.3012-1.9604 1.053-0.71053 2.5768-0.71053 1.5152 0 3.1075 0.73622l-0.38522 1.9861h-0.90743q0.0342-0.1969 0.0342-0.36811 0-0.62493-0.43659-1.0615-0.42803-0.44516-1.4296-0.44516-2.0118 0-2.2857 1.404-0.0342 0.14553-0.0342 0.40235 0 0.26538 0.27394 0.565 0.2825 0.29962 1.3697 0.65917l1.1728 0.38523q1.2156 0.40235 1.6693 1.0102 0.31675 0.42803 0.31675 0.8475 0 1.7977-1.4382 2.7308-1.13 0.74478-2.8593 0.74478-1.7292 0-3.2616-0.75334z" style="font-feature-settings:normal;font-variant-caps:normal;font-variant-ligatures:normal;font-variant-numeric:normal"/>
  </g>
  <path d="m-460.27-153.34c0-3.9956-3.25-7.3412-7.2647-7.3412-4.0529 0-7.3603 3.2691-7.3603 7.3412 0 4.0338 3.2882 7.3412 7.3221 7.3412s7.3029-3.3073 7.3029-7.3412zm-1.5868 0c0 3.1926-2.4853 5.8691-5.7162 5.8691-3.2118 0-5.7353-2.6956-5.7353-5.8691 0-3.2118 2.5044-5.8691 5.7544-5.8691 3.2118 0 5.6971 2.6956 5.6971 5.8691zm-2.3324 3.9956c-0.49706-1.3574 0.26764-3.1735-1.4147-3.8809 0.84118-0.38236 1.3191-1.0324 1.3191-1.9691 0-1.7015-1.5103-2.2941-2.9824-2.2941h-3.4412v8.1441h2.0265v-3.1353h0.80294c0.89853 0 1.3382 0.30589 1.453 1.1853 0.0574 0.45884 0.0956 1.6059 0.26764 1.95zm-2.1221-5.6971c0 0.87941-0.47793 1.2426-1.3191 1.2426h-1.0515v-2.2941h1.0897c0.72647 0 1.2809 0.2103 1.2809 1.0515z" fill="#47a0cd" style="font-variant-caps:normal;font-variant-ligatures:normal;font-variant-numeric:normal"/>
  <g fill="#369" stroke-width=".26458" aria-label="h">
   <path d="m-625.8-196.92-2.715 12.768h1.7611l1.5042-7.2644c0.58702-0.64206 1.6877-1.3208 2.8067-1.3208 0.77047 0 1.1557 0.55033 1.1557 1.4492 0 0.64205-0.20179 1.3391-0.38523 2.128l-1.1557 5.008h3.4304v-0.9906h-1.5593l1.119-4.3476c0.18344-0.73378 0.34854-1.5776 0.34854-2.2747 0-1.4492-0.64205-2.2013-1.8711-2.2013-1.6143 0-2.6966 0.77047-3.6322 1.7244h-0.11006l1.3024-5.6684h-3.3203v0.9906z"/>
  </g>
  <path d="m-614.36-187.89q-0.0342 0.3253-0.0342 0.61636 0 0.8047 0.29106 1.3355 0.50508 0.94167 1.8577 0.94167 0.99304 0 1.481-0.29962 0.87319-0.53932 1.0786-1.2327h1.1557q-0.34242 1.0872-1.618 1.8491-0.89031 0.53076-2.6538 0.53076t-2.7137-1.3098q-0.66773-0.91599-0.66773-2.2429 0-0.58212 0.12841-1.2413 0.41947-2.1658 1.8662-3.4842t3.5013-1.3183q3.3472 0 3.3472 2.3713 0 1.7378-1.7549 2.5853-1.7892 0.86462-5.2648 0.89887zm4.3916-1.9176q0.9588-0.565 0.9588-1.6265 0-1.4639-1.9433-1.4639-1.1471 0-1.9433 0.87319-0.79614 0.87318-1.2841 3.2274 2.748-0.12841 4.2118-1.0102z" fill="#369" style="font-feature-settings:normal;font-variant-caps:normal;font-variant-ligatures:normal;font-variant-numeric:normal"/>
 </g>
</svg>
