<svg clip-rule="evenodd" fill-rule="evenodd" stroke-linejoin="round" stroke-miterlimit="2" viewBox="0 0 165 40" xmlns="http://www.w3.org/2000/svg"><path d="m114.169 17.432c-1.739-.05-3.726.612-5.58 2.468l-.471.078-.589-3.023c2.63-1.688 5.378-2.983 8.283-3.219l2.03.04c.687.068 1.384.196 2.092.392 3.963 1.06 5.417 4.357 5.417 8.126v9.97c0 1.453-.471 3.024 1.178 3.613.51.196 1.139.274 1.687.236l-.157 1.216c-7.379 4.005-8.832-2.552-9.107-2.16-.903 1.257-1.962 2.121-3.14 2.631l-1.241.436c-1.272.317-2.626.281-3.981-.043-3.258-.786-4.71-3.337-4.71-6.282 0-4.318 3.807-6.281 7.576-6.831.902-.155 1.687-.352 2.356-.548l1.599-.745c3.051-1.939 1.493-5.125-1.599-6.086zm38.072-2.636-.198-6.045 6.949-3.102-.078 1.964-.197 2.355v4.907c1.415-.039 2.866.117 4.161-.392-.195.902-.195 1.765 0 2.669l-4.435-.118v14.25c0 1.728.079 2.984.51 3.612.943 1.295 2.787 1.255 4.318.587l-.157 2.003-.981.353c-4.044 1.453-9.382 1.022-9.932-3.886-.078-.589-.118-1.255-.118-1.962v-14.957c-1.099.118-2.08.118-3.18.118.198-.864.198-1.65 0-2.592zm-135.142-10.556c.981.038 1.853.078 2.613.192 4.16.432 7.38 2.12 9.696 4.986 2.277 2.865 3.415 6.319 3.415 10.402 0 4.869-1.453 8.989-4.397 12.328-1.53 1.726-3.297 3.1-5.3 4.042-1.844.903-3.886 1.414-6.123 1.492h-.55l-5.888.157-3.965-.157h-2.748l-2.552.157.237-2.551.156-5.929v-15.309l-.156-4.672v-3.023l-.237-2.119 2.474.118h7.184l4.318-.118h1.727zm114.612 10.242c2.197.157 4.396.196 6.555 0l.078 5.85c1.962-3.809 2.434-6.361 8.088-6.439-.314 2.198-.393 4.396-.198 6.595l-.51.432c.119-.157-6.437-2.081-7.184 3.532-.039.394-.039.708-.039 1.022v.863c0 3.808.078 7.655.354 11.463l-7.144-.039c.235-5.261 1.019-18.411 0-23.279zm-67.717 20.962.549-2.943 1.021-7.262 1.453-10.953.588-4.672c.276-1.728.511-3.454.746-5.222 1.375.158 2.709.158 4.083.04l10.991 23.005c3.769-7.616 7.459-15.31 11.267-22.965 1.334.118 2.866.078 4.161-.158 1.375 11.15 2.67 22.259 4.082 33.368-2.552-.157-5.143-.196-7.694.118l-2.237-22.298-4.632 9.814-4.475 9.068-1.571 3.416h-1.805l-10.639-22.257c-.706 7.38-1.413 14.759-2.08 22.139-1.452-.117-2.866-.157-4.279 0zm-31.595.851h27.517l.573 1.361h-28.664zm84.58-1.503c2.31-1.137 1.889-5.216 2.13-9.476-.393.216-.913.403-1.487.604l-1.81.692c-1.649.745-3.18 1.924-3.259 4.514-.079 2.67.982 4.005 2.944 4.005.118 0 .197 0 .315-.039zm-99.976-27.337c-1.334-.314-2.748-.431-4.161-.431h-3.926v7.026l-.078 7.184.078 7.223v6.595h4.279c1.374 0 2.63-.157 3.808-.472 5.182-1.374 8.126-5.927 8.126-14.407 0-8.361-3.612-11.658-8.126-12.718zm16.829 25.439h24.651l.507 1.203h-25.665zm1.374-3.261h21.903l.448 1.063h-22.799zm1.331-3.16h19.241l.406.962h-20.053zm1.289-3.06h16.663l.363.862h-17.389zm1.247-2.959h14.17l.32.762h-14.811zm1.204-2.859h11.761l.279.662h-12.319zm1.162-2.758h9.437l.236.56h-9.909zm4.718-13.523c-1.233 6.453-.389 5.197-6.414 4.66 5.924 2.797 5.371 1.45 2.45 7.541 2.569-2.135 3.853-3.852 3.964-5.742.111 1.89 1.395 3.607 3.964 5.742-2.921-6.091-3.474-4.744 2.45-7.541-6.025.537-5.181 1.793-6.414-4.66zm3.119 2.443c-.396-.291-.953-.207-1.244.189s-.207.953.189 1.245c.396.291.953.206 1.244-.19.292-.396.207-.953-.189-1.244zm-6.238 0c.396-.291.953-.207 1.244.189s.207.953-.189 1.245c-.396.291-.953.206-1.244-.19-.292-.396-.207-.953.189-1.244z" fill="#206b33" fill-rule="nonzero"/></svg>