<?xml version="1.0" encoding="UTF-8" standalone="no"?>
<!DOCTYPE svg PUBLIC "-//W3C//DTD SVG 1.1//EN" "http://www.w3.org/Graphics/SVG/1.1/DTD/svg11.dtd">
<svg width="100%" height="100%" viewBox="0 0 564 339" version="1.1" xmlns="http://www.w3.org/2000/svg" xmlns:xlink="http://www.w3.org/1999/xlink" xml:space="preserve" xmlns:serif="http://www.serif.com/" style="fill-rule:evenodd;clip-rule:evenodd;stroke-linejoin:round;stroke-miterlimit:2;">
    <g transform="matrix(1,0,0,1,-109,-149)">
        <path d="M119.6,299.7C121.9,299.7 124.2,298.8 125.8,297.1C127.5,295.5 128.5,293.2 128.5,290.8L128.5,234.4L177.3,234.4C179.6,234.4 181.9,233.5 183.5,231.8C185.3,230.2 186.2,227.9 186.2,225.5C186.2,220.6 182.2,216.5 177.2,216.5L128.6,216.5L128.6,169.1L198.5,169.1C200.8,169.2 203.1,168.3 204.7,166.7C208.1,163.2 208.1,157.7 204.7,154.2C203.1,152.5 200.8,151.5 198.4,151.6L119.6,151.6C117.4,151.5 115.2,152.3 113.6,153.8C111.9,155.4 110.9,157.7 110.9,160.1L110.9,290.6C110.9,295.5 114.9,299.6 119.9,299.6" style="fill-rule:nonzero;"/>
    </g>
    <g transform="matrix(1,0,0,1,-109,-149)">
        <path d="M553.4,169.1C558.1,169.3 562.1,165.7 562.4,161L562.4,160.4C562.4,158.1 561.5,155.9 559.9,154.3C558.3,152.6 556,151.6 553.6,151.7L474.5,151.7C472.3,151.5 470.1,152.3 468.5,153.9C466.8,155.5 465.8,157.8 465.8,160.2L465.8,290.8C465.8,293.1 466.7,295.3 468.4,296.9C470,298.7 472.3,299.7 474.7,299.6L553.5,299.6C555.8,299.7 558.1,298.7 559.7,297C561.5,295.4 562.4,293.1 562.4,290.7C562.5,288.4 561.6,286.2 559.9,284.6C558.3,282.8 556,281.8 553.5,281.9L483.6,281.9L483.6,234.3L535.2,234.3C537.5,234.4 539.7,233.4 541.3,231.7C544.7,228.1 544.7,222.5 541.1,219C539.5,217.5 537.4,216.6 535.2,216.5L483.6,216.5L483.6,169L553.4,169L553.4,169.1Z" style="fill-rule:nonzero;"/>
    </g>
    <g transform="matrix(1,0,0,1,-109,-149)">
        <path d="M437.7,169.1C440,169.2 442.3,168.3 443.9,166.7C445.6,165 446.5,162.8 446.5,160.4C446.5,158.1 445.6,155.9 443.9,154.3C442.3,152.6 440,151.6 437.7,151.7L358.4,151.7C356.2,151.6 354.1,152.3 352.5,153.9C350.7,155.5 349.8,157.8 349.8,160.2L349.8,290.8C349.7,293.1 350.7,295.3 352.4,296.9C354,298.7 356.3,299.7 358.7,299.6L437.7,299.6C440,299.7 442.3,298.7 443.8,297C445.6,295.4 446.6,293.1 446.5,290.7C446.5,288.4 445.6,286.1 443.9,284.6C442.3,282.8 440,281.8 437.6,281.9L367.7,281.9L367.7,234.3L419.3,234.3C421.6,234.3 423.8,233.4 425.4,231.7C427.2,230.1 428.2,227.8 428.1,225.4C428.2,223.1 427.2,220.9 425.5,219.3C423.9,217.5 421.7,216.5 419.3,216.5L367.5,216.5L367.5,169L437.7,169L437.7,169.1Z" style="fill-rule:nonzero;"/>
    </g>
    <g transform="matrix(1,0,0,1,-109,-149)">
        <path d="M668.3,284.4C666.5,282.7 664.2,281.8 661.8,281.9L603.5,281.9L660.1,210.2C664.3,204.1 666.4,196.9 666.2,189.5C666.4,178.5 662,167.9 654.1,160.2C638,144.1 611.9,144 595.7,160.1C587.9,167.9 583.6,178.4 583.6,189.4L583.6,192C583.7,194.4 584.8,196.7 586.6,198.2C588.3,199.6 590.4,200.4 592.6,200.4C595,200.4 597.3,199.3 598.9,197.4C600.5,195.7 601.4,193.4 601.2,191.1L601.2,189.4C601.1,183.2 603.5,177.2 607.9,172.8C617.1,163.5 632,163.5 641.2,172.6C645.7,177.1 648.2,183.1 648.2,189.5C648.5,193.3 647.5,197 645.3,200.2L578.7,285C576.5,287.8 576.2,291.6 577.9,294.7C579.6,297.6 582.6,299.6 586,299.8L661.9,299.8C664.3,299.8 666.6,298.8 668.3,297.1C671.8,293.5 671.8,287.9 668.3,284.4Z" style="fill:rgb(0,159,227);fill-rule:nonzero;"/>
    </g>
    <g transform="matrix(1,0,0,1,-109,-149)">
        <path d="M662,343.5C664.3,343.6 666.6,342.8 668.2,341.2C669.9,339.5 670.8,337.2 670.8,334.8C670.8,332.5 669.9,330.3 668.2,328.8C666.6,327 664.3,326.1 661.9,326.2L582.9,326.2C580.7,326 578.5,326.9 576.9,328.4C575.2,330 574.2,332.3 574.2,334.6L574.2,465.2C574.2,467.5 575.1,469.8 576.8,471.4C578.4,473.1 580.7,474.1 583.1,474.1L662,474.1C664.3,474.2 666.6,473.2 668.1,471.5C669.9,469.9 670.9,467.6 670.8,465.2C670.9,462.9 669.9,460.7 668.2,459.1C666.6,457.3 664.3,456.3 661.9,456.3L592,456.3L592,408.8L643.7,408.8C646,408.8 648.3,407.9 649.9,406.2C651.6,404.6 652.6,402.3 652.6,399.9C652.7,397.6 651.7,395.4 650,393.8C648.4,392 646.1,391.1 643.7,391.1L592.2,391.1L592.2,343.5L662,343.5Z" style="fill-rule:nonzero;"/>
    </g>
    <g transform="matrix(1,0,0,1,-109,-149)">
        <path d="M241.1,331.1C246.5,322.9 257.4,325.7 257.4,335.2L257.4,465.9C257.4,476.8 239.5,476.8 239.5,465.9L239.5,363.4L192.2,435C190.1,439.5 184.8,441.4 180.3,439.3C178.4,438.4 176.9,436.9 176,435L128.6,363.3L128.6,465.8C128.6,476.7 110.7,476.7 110.7,465.8L110.7,335.2C110.3,330.6 113.8,326.6 118.4,326.2C121.9,325.9 125.2,327.9 126.7,331.1L184.2,417.1L241.1,331.1Z" style="fill-rule:nonzero;"/>
    </g>
    <g transform="matrix(1,0,0,1,-109,-149)">
        <path d="M556.6,326.5C552.1,324.8 547,327 545.2,331.4L501.3,441.5L457.4,331.4C456.5,326.5 451.8,323.3 447,324.2C442.2,325.1 438.9,329.8 439.8,334.6C440,335.8 440.4,336.9 441.1,337.8L493.2,468.4C494,470.6 495.8,472.4 498.1,473.2C499.1,473.7 500.2,473.9 501.3,473.9C502.4,473.9 503.6,473.6 504.6,473.2C506.8,472.3 508.5,470.6 509.3,468.4L561.3,337.8C563.1,333.4 561,328.4 556.6,326.5Z" style="fill-rule:nonzero;"/>
    </g>
    <g transform="matrix(1,0,0,1,-109,-149)">
        <path d="M316.1,473.4C314.4,473.4 312.8,472.9 311.4,472.1C271.4,447.4 259,395 283.6,355C302.5,324.3 338.8,308.8 374.1,316.5C379,316.4 383.1,320.4 383.2,325.3C383.3,330.2 379.3,334.3 374.4,334.4C373.1,334.4 371.8,334.2 370.7,333.6C334.1,325.9 298.1,349.3 290.4,386C284.5,413.9 296.7,442.4 320.8,457.5C324.8,460.1 326,465.5 323.6,469.6C321.8,472 319,473.5 316.1,473.4Z" style="fill-rule:nonzero;"/>
    </g>
    <g transform="matrix(1,0,0,1,-109,-149)">
        <path d="M357.1,485.4C351.3,485.4 345.6,484.8 339.9,483.6C335,483.5 331,479.5 331,474.5C331,469.5 335.1,465.6 340.1,465.6C341.3,465.6 342.5,465.9 343.6,466.4C380.2,473.9 416,450.3 423.5,413.7C429.2,386.1 417.2,357.9 393.4,342.9C389.8,339.5 389.7,333.8 393.1,330.2C395.6,327.6 399.4,326.7 402.8,328C442.7,352.9 454.9,405.4 430,445.3C414.3,470.4 386.7,485.6 357.1,485.4Z" style="fill-rule:nonzero;"/>
    </g>
    <g transform="matrix(1,0,0,1,-109,-149)">
        <path d="M386.2,442C383.7,442 381.3,440.9 379.6,439.1C376.5,435.4 376.8,429.9 380.4,426.7C395.1,413.8 396.6,391.4 383.7,376.6C376.3,368.1 365.2,363.6 353.9,364.6C349.1,365 344.9,361.5 344.5,356.7L344.5,356.6C344.2,351.8 347.7,347.6 352.5,347.1C381.7,344.6 407.4,366.3 409.8,395.5C411.2,412.3 404.6,428.7 391.9,439.8C390.4,441.3 388.3,442.1 386.2,442Z" style="fill:rgb(230,0,126);fill-rule:nonzero;"/>
    </g>
    <g transform="matrix(1,0,0,1,-109,-149)">
        <path d="M357.1,453C327.8,453 304.1,429.3 304.1,400C304.1,384.7 310.7,370.2 322.2,360.1C325.2,356.1 330.8,355.3 334.7,358.3C338.7,361.3 339.5,366.9 336.5,370.8C335.7,371.8 334.8,372.7 333.7,373.3C319,386.2 317.5,408.6 330.4,423.4C337.8,431.9 348.9,436.3 360.1,435.4C364.9,434.9 369.1,438.4 369.6,443.2L369.6,443.4C370,448.3 366.4,452.6 361.5,453.1C360,453 358.4,453 357.1,453Z" style="fill:rgb(0,159,227);fill-rule:nonzero;"/>
    </g>
    <g transform="matrix(1,0,0,1,-109,-149)">
        <path d="M319.7,220C326.7,212.8 330.5,203.1 330.4,193.1C330.5,181.9 325.7,171.2 317.4,163.8C308.9,155.9 297.6,151.6 286,151.8L232.8,151.8C230.5,151.8 228.3,152.7 226.7,154.4C223.2,157.7 223.1,163.2 226.4,166.6C226.5,166.7 226.6,166.8 226.7,166.9C228.4,168.5 230.6,169.3 232.9,169.2L286.1,169.2C293.2,169.1 300,171.7 305.2,176.5C314.3,184.2 315.5,197.8 307.8,206.9C307,207.8 306.1,208.7 305.2,209.5C300.2,214.2 293.5,216.8 286.6,216.8L232.8,216.8C230.5,216.7 228.3,217.6 226.7,219.2C225.2,220.6 224.3,222.5 224,224.5L224,291C224,293.4 224.9,295.6 226.6,297.3C230.1,300.6 235.5,300.6 239,297.3C240.7,295.7 241.6,293.4 241.6,291.1L241.6,234.4L275.6,234.4L301.3,294.3C302.7,297.5 305.9,299.6 309.4,299.6C310.6,299.6 311.8,299.4 312.8,298.9C317.1,296.9 319.1,291.8 317.3,287.4L294,233.4C295,233.3 296,233.1 296.9,232.8C305.9,231 313.7,226.5 319.7,220Z" style="fill-rule:nonzero;"/>
    </g>
</svg>
