<?xml version="1.0" standalone="no"?>
<!DOCTYPE svg PUBLIC "-//W3C//DTD SVG 20010904//EN"
 "http://www.w3.org/TR/2001/REC-SVG-20010904/DTD/svg10.dtd">
<svg version="1.0" xmlns="http://www.w3.org/2000/svg"
 width="640.000000pt" height="640.000000pt" viewBox="0 0 640.000000 640.000000"
 preserveAspectRatio="xMidYMid meet">
<metadata>
Created by potrace 1.14, written by Peter Selinger 2001-2017
</metadata>
<g transform="translate(0.000000,640.000000) scale(0.100000,-0.100000)"
fill="#000000" stroke="none">
<path d="M796 5984 c-180 -44 -338 -203 -381 -386 -22 -94 -22 -4687 0 -4791
28 -135 130 -270 257 -341 127 -71 -60 -66 2528 -65 1438 0 2354 4 2385 9 85
17 192 76 259 145 59 60 125 171 143 240 12 45 14 4730 3 4790 -32 164 -165
315 -342 388 l-53 22 -2370 2 c-2020 1 -2379 -1 -2429 -13z"/>
</g>
</svg>
